<mxfile host="Electron" modified="2023-09-01T12:06:41.817Z" agent="Mozilla/5.0 (Macintosh; Intel Mac OS X 10_15_7) AppleWebKit/537.36 (KHTML, like Gecko) draw.io/21.6.8 Chrome/114.0.5735.289 Electron/25.5.0 Safari/537.36" etag="Xzm41yv--7xsII58Cv_D" version="21.6.8" type="device">
  <diagram id="2xOe5xubepqIjJ3LcJC1" name="Page-1">
    <mxGraphModel dx="4839" dy="2237" grid="1" gridSize="10" guides="1" tooltips="1" connect="1" arrows="1" fold="1" page="1" pageScale="1" pageWidth="827" pageHeight="1169" math="0" shadow="0">
      <root>
        <mxCell id="0" />
        <mxCell id="1" parent="0" />
        <mxCell id="WHbFI5c_Wu-xMdbz2nJR-5" value="" style="rounded=0;whiteSpace=wrap;html=1;dashed=1;fillColor=none;" parent="1" vertex="1">
          <mxGeometry x="-1260" y="117" width="470" height="230" as="geometry" />
        </mxCell>
        <mxCell id="tCUEVHxepWvSsO0FmJBN-13" value="&lt;div&gt;&lt;b&gt;dc:creator:&lt;/b&gt;&amp;nbsp;VÃ­ctor Morcuende&lt;/div&gt;&lt;div&gt;&lt;b&gt;owl:versionInfo:&lt;/b&gt;&amp;nbsp;0.0.1&lt;/div&gt;&lt;div&gt;&lt;b&gt;dc:title:&lt;/b&gt;&amp;nbsp;NextProcurement Ontology&lt;/div&gt;" style="shape=document;whiteSpace=wrap;html=1;boundedLbl=1;labelBackgroundColor=#ffffff;strokeColor=#000000;fontSize=12;fontColor=#000000;size=0.23333333333333334;fillColor=none;" parent="1" vertex="1">
          <mxGeometry x="-2450" y="-1103.25" width="227.72" height="90" as="geometry" />
        </mxCell>
        <mxCell id="tCUEVHxepWvSsO0FmJBN-14" value="&lt;div&gt;&lt;b style=&quot;background-color: initial; border-color: var(--border-color);&quot;&gt;epo:&amp;nbsp;&lt;/b&gt;&lt;span style=&quot;background-color: initial;&quot;&gt;http://data.europa.eu/a4g/ontology#&lt;/span&gt;&lt;br&gt;&lt;/div&gt;&lt;div&gt;&lt;div style=&quot;border-color: var(--border-color);&quot;&gt;&lt;b style=&quot;border-color: var(--border-color); background-color: initial; text-align: start; caret-color: rgb(0, 0, 0);&quot;&gt;nextproc:&lt;/b&gt;&amp;nbsp;http://data.tbfy.eu/ontology/nextprocurement#&lt;br style=&quot;border-color: var(--border-color);&quot;&gt;&lt;/div&gt;&lt;/div&gt;&lt;div&gt;&lt;span style=&quot;border-color: var(--border-color); background-color: initial;&quot;&gt;&lt;div style=&quot;border-color: var(--border-color);&quot;&gt;&lt;b style=&quot;border-color: var(--border-color);&quot;&gt;dct:&amp;nbsp;&lt;/b&gt;http://purl.org/dc/terms/&lt;/div&gt;&lt;div style=&quot;border-color: var(--border-color);&quot;&gt;&lt;b&gt;locn: &lt;/b&gt;http://w3.org/ns/locn#&lt;/div&gt;&lt;/span&gt;&lt;/div&gt;&lt;div&gt;&lt;b style=&quot;border-color: var(--border-color); background-color: initial;&quot;&gt;rdfs:&amp;nbsp;&lt;/b&gt;http://www.w3.org/2000/01/rdf-schema#&lt;/div&gt;&lt;div&gt;&lt;b style=&quot;background-color: initial;&quot;&gt;xsd: &lt;/b&gt;&lt;span style=&quot;background-color: initial;&quot;&gt;http://www.w3.org/2001/&lt;/span&gt;&lt;br&gt;&lt;/div&gt;" style="shape=note;whiteSpace=wrap;html=1;backgroundOutline=1;darkOpacity=0.05;fontSize=14;fillColor=none;align=center;" parent="1" vertex="1">
          <mxGeometry x="-2200.9299999999994" y="-1130" width="368" height="143.5" as="geometry" />
        </mxCell>
        <mxCell id="EqtquCx9TaFXY-XCjnWr-50" value="&lt;div style=&quot;text-align: start;&quot;&gt;&lt;span style=&quot;background-color: initial;&quot;&gt;&lt;b&gt;epo:Contract&lt;/b&gt;&lt;/span&gt;&lt;/div&gt;" style="rounded=0;whiteSpace=wrap;html=1;snapToPoint=1;points=[[0.1,0],[0.2,0],[0.3,0],[0.4,0],[0.5,0],[0.6,0],[0.7,0],[0.8,0],[0.9,0],[0,0.1],[0,0.3],[0,0.5],[0,0.7],[0,0.9],[0.1,1],[0.2,1],[0.3,1],[0.4,1],[0.5,1],[0.6,1],[0.7,1],[0.8,1],[0.9,1],[1,0.1],[1,0.3],[1,0.5],[1,0.7],[1,0.9]];fontFamily=Helvetica;fontSize=14;fillColor=none;" parent="1" vertex="1">
          <mxGeometry x="-1199.11" y="39.75" width="264" height="30" as="geometry" />
        </mxCell>
        <mxCell id="EqtquCx9TaFXY-XCjnWr-51" value="epo:hasEntryIntoForceDate : xsd:date&lt;br&gt;&lt;b&gt;(ProcurementProject_StartDate)&lt;/b&gt;&lt;b&gt;&lt;br&gt;&lt;/b&gt;" style="rounded=0;whiteSpace=wrap;html=1;snapToPoint=1;points=[[0.1,0],[0.2,0],[0.3,0],[0.4,0],[0.5,0],[0.6,0],[0.7,0],[0.8,0],[0.9,0],[0,0.1],[0,0.3],[0,0.5],[0,0.7],[0,0.9],[0.1,1],[0.2,1],[0.3,1],[0.4,1],[0.5,1],[0.6,1],[0.7,1],[0.8,1],[0.9,1],[1,0.1],[1,0.3],[1,0.5],[1,0.7],[1,0.9]];fontFamily=Helvetica;fontSize=14;fillColor=none;" parent="1" vertex="1">
          <mxGeometry x="-1199.11" y="69.75" width="264" height="56" as="geometry" />
        </mxCell>
        <mxCell id="tYJ4tYIWKtcqoDwBPRuW-1" value="&lt;b style=&quot;border-color: var(--border-color);&quot;&gt;epo:Buyer&lt;br&gt;&lt;/b&gt;" style="rounded=0;whiteSpace=wrap;html=1;snapToPoint=1;points=[[0.1,0],[0.2,0],[0.3,0],[0.4,0],[0.5,0],[0.6,0],[0.7,0],[0.8,0],[0.9,0],[0,0.1],[0,0.3],[0,0.5],[0,0.7],[0,0.9],[0.1,1],[0.2,1],[0.3,1],[0.4,1],[0.5,1],[0.6,1],[0.7,1],[0.8,1],[0.9,1],[1,0.1],[1,0.3],[1,0.5],[1,0.7],[1,0.9]];fontFamily=Helvetica;fontSize=14;fillColor=none;" parent="1" vertex="1">
          <mxGeometry x="-1179.61" y="-140" width="225" height="30" as="geometry" />
        </mxCell>
        <mxCell id="tYJ4tYIWKtcqoDwBPRuW-2" value="&lt;span style=&quot;border-color: var(--border-color);&quot;&gt;epo:hasBuyerProfile : xsd:anyURI&lt;br&gt;&lt;b&gt;(BuyerProfileURIID)&lt;/b&gt;&lt;br&gt;&lt;/span&gt;" style="rounded=0;whiteSpace=wrap;html=1;snapToPoint=1;points=[[0.1,0],[0.2,0],[0.3,0],[0.4,0],[0.5,0],[0.6,0],[0.7,0],[0.8,0],[0.9,0],[0,0.1],[0,0.3],[0,0.5],[0,0.7],[0,0.9],[0.1,1],[0.2,1],[0.3,1],[0.4,1],[0.5,1],[0.6,1],[0.7,1],[0.8,1],[0.9,1],[1,0.1],[1,0.3],[1,0.5],[1,0.7],[1,0.9]];fontFamily=Helvetica;fontSize=14;fillColor=none;" parent="1" vertex="1">
          <mxGeometry x="-1179.61" y="-110" width="225" height="49" as="geometry" />
        </mxCell>
        <mxCell id="tYJ4tYIWKtcqoDwBPRuW-8" value="" style="endArrow=classic;html=1;endSize=8;arcSize=0;rounded=0;exitX=0.864;exitY=-0.003;exitDx=0;exitDy=0;exitPerimeter=0;entryX=0.109;entryY=0.001;entryDx=0;entryDy=0;entryPerimeter=0;" parent="1" source="tYJ4tYIWKtcqoDwBPRuW-1" target="tYJ4tYIWKtcqoDwBPRuW-1" edge="1">
          <mxGeometry width="50" height="50" relative="1" as="geometry">
            <mxPoint x="-985.11" y="-143" as="sourcePoint" />
            <mxPoint x="-1155.11" y="-143" as="targetPoint" />
            <Array as="points">
              <mxPoint x="-985.11" y="-199" />
              <mxPoint x="-1155.11" y="-199" />
            </Array>
          </mxGeometry>
        </mxCell>
        <mxCell id="tYJ4tYIWKtcqoDwBPRuW-9" value="&lt;div&gt;&lt;font style=&quot;font-size: 12px;&quot;&gt;nextproc:hasOrganicLocation&lt;/font&gt;&lt;/div&gt;&lt;b&gt;(LocatedContractingParty_LosQueSeRepiten)&lt;/b&gt;" style="text;html=1;align=center;verticalAlign=middle;resizable=0;points=[];labelBackgroundColor=#ffffff;" parent="tYJ4tYIWKtcqoDwBPRuW-8" vertex="1" connectable="0">
          <mxGeometry x="-0.1269" relative="1" as="geometry">
            <mxPoint x="-11" y="-2" as="offset" />
          </mxGeometry>
        </mxCell>
        <mxCell id="UUAXTXCXdKJbw71_6arQ-5" value="&lt;div style=&quot;text-align: start;&quot;&gt;&lt;span style=&quot;background-color: initial;&quot;&gt;&lt;b&gt;epo:Procedure&lt;/b&gt;&lt;/span&gt;&lt;/div&gt;" style="rounded=0;whiteSpace=wrap;html=1;snapToPoint=1;points=[[0.1,0],[0.2,0],[0.3,0],[0.4,0],[0.5,0],[0.6,0],[0.7,0],[0.8,0],[0.9,0],[0,0.1],[0,0.3],[0,0.5],[0,0.7],[0,0.9],[0.1,1],[0.2,1],[0.3,1],[0.4,1],[0.5,1],[0.6,1],[0.7,1],[0.8,1],[0.9,1],[1,0.1],[1,0.3],[1,0.5],[1,0.7],[1,0.9]];fontFamily=Helvetica;fontSize=14;fillColor=none;" parent="1" vertex="1">
          <mxGeometry x="-1964.4299999999998" y="-379" width="168" height="50" as="geometry" />
        </mxCell>
        <mxCell id="UUAXTXCXdKJbw71_6arQ-7" value="&lt;div style=&quot;text-align: start;&quot;&gt;&lt;span style=&quot;background-color: initial;&quot;&gt;&lt;b&gt;epo:Lot&lt;/b&gt;&lt;/span&gt;&lt;/div&gt;" style="rounded=0;whiteSpace=wrap;html=1;snapToPoint=1;points=[[0.1,0],[0.2,0],[0.3,0],[0.4,0],[0.5,0],[0.6,0],[0.7,0],[0.8,0],[0.9,0],[0,0.1],[0,0.3],[0,0.5],[0,0.7],[0,0.9],[0.1,1],[0.2,1],[0.3,1],[0.4,1],[0.5,1],[0.6,1],[0.7,1],[0.8,1],[0.9,1],[1,0.1],[1,0.3],[1,0.5],[1,0.7],[1,0.9]];fontFamily=Helvetica;fontSize=14;fillColor=none;" parent="1" vertex="1">
          <mxGeometry x="-1785.9299999999998" y="-190" width="141" height="56" as="geometry" />
        </mxCell>
        <mxCell id="UUAXTXCXdKJbw71_6arQ-22" value="&lt;div style=&quot;text-align: start;&quot;&gt;&lt;span style=&quot;background-color: initial;&quot;&gt;&lt;b&gt;epo:Tender&lt;/b&gt;&lt;/span&gt;&lt;/div&gt;" style="rounded=0;whiteSpace=wrap;html=1;snapToPoint=1;points=[[0.1,0],[0.2,0],[0.3,0],[0.4,0],[0.5,0],[0.6,0],[0.7,0],[0.8,0],[0.9,0],[0,0.1],[0,0.3],[0,0.5],[0,0.7],[0,0.9],[0.1,1],[0.2,1],[0.3,1],[0.4,1],[0.5,1],[0.6,1],[0.7,1],[0.8,1],[0.9,1],[1,0.1],[1,0.3],[1,0.5],[1,0.7],[1,0.9]];fontFamily=Helvetica;fontSize=14;fillColor=none;" parent="1" vertex="1">
          <mxGeometry x="-1596.4299999999998" y="26.75" width="160" height="56" as="geometry" />
        </mxCell>
        <mxCell id="UUAXTXCXdKJbw71_6arQ-24" value="&lt;div style=&quot;text-align: start;&quot;&gt;&lt;/div&gt;&lt;b style=&quot;border-color: var(--border-color); text-align: start;&quot;&gt;epo:Tender&lt;b style=&quot;background-color: initial;&quot;&gt;Group&lt;/b&gt;&lt;br&gt;&lt;/b&gt;" style="rounded=0;whiteSpace=wrap;html=1;snapToPoint=1;points=[[0.1,0],[0.2,0],[0.3,0],[0.4,0],[0.5,0],[0.6,0],[0.7,0],[0.8,0],[0.9,0],[0,0.1],[0,0.3],[0,0.5],[0,0.7],[0,0.9],[0.1,1],[0.2,1],[0.3,1],[0.4,1],[0.5,1],[0.6,1],[0.7,1],[0.8,1],[0.9,1],[1,0.1],[1,0.3],[1,0.5],[1,0.7],[1,0.9]];fontFamily=Helvetica;fontSize=14;fillColor=none;" parent="1" vertex="1">
          <mxGeometry x="-1603.9299999999998" y="288.5" width="175" height="50" as="geometry" />
        </mxCell>
        <mxCell id="UUAXTXCXdKJbw71_6arQ-25" value="" style="endArrow=classic;html=1;exitX=0.5;exitY=0;exitDx=0;exitDy=0;entryX=0.5;entryY=1;entryDx=0;entryDy=0;endSize=8;arcSize=0;rounded=0;" parent="1" source="UUAXTXCXdKJbw71_6arQ-24" target="UUAXTXCXdKJbw71_6arQ-22" edge="1">
          <mxGeometry width="50" height="50" relative="1" as="geometry">
            <mxPoint x="-1510.4299999999998" y="530" as="sourcePoint" />
            <mxPoint x="-1374.4299999999994" y="646" as="targetPoint" />
          </mxGeometry>
        </mxCell>
        <mxCell id="UUAXTXCXdKJbw71_6arQ-26" value="&lt;div&gt;epo:comprisesTender (1..N)&lt;/div&gt;" style="text;html=1;align=center;verticalAlign=middle;resizable=0;points=[];labelBackgroundColor=#ffffff;" parent="UUAXTXCXdKJbw71_6arQ-25" vertex="1" connectable="0">
          <mxGeometry x="-0.1269" relative="1" as="geometry">
            <mxPoint y="-1" as="offset" />
          </mxGeometry>
        </mxCell>
        <mxCell id="UUAXTXCXdKJbw71_6arQ-31" value="" style="endArrow=classic;html=1;exitX=0;exitY=0.3;exitDx=0;exitDy=0;entryX=0.5;entryY=1;entryDx=0;entryDy=0;endSize=8;arcSize=0;rounded=0;" parent="1" source="UUAXTXCXdKJbw71_6arQ-22" target="UUAXTXCXdKJbw71_6arQ-7" edge="1">
          <mxGeometry width="50" height="50" relative="1" as="geometry">
            <mxPoint x="-1332.4299999999998" y="408" as="sourcePoint" />
            <mxPoint x="-1632.8179999999998" y="463.24000000000024" as="targetPoint" />
            <Array as="points">
              <mxPoint x="-1715.4299999999998" y="44" />
            </Array>
          </mxGeometry>
        </mxCell>
        <mxCell id="UUAXTXCXdKJbw71_6arQ-32" value="&lt;div&gt;epo:isSubmittedForLot&lt;/div&gt;" style="text;html=1;align=center;verticalAlign=middle;resizable=0;points=[];labelBackgroundColor=#ffffff;" parent="UUAXTXCXdKJbw71_6arQ-31" vertex="1" connectable="0">
          <mxGeometry x="-0.1269" relative="1" as="geometry">
            <mxPoint y="-30" as="offset" />
          </mxGeometry>
        </mxCell>
        <mxCell id="UUAXTXCXdKJbw71_6arQ-33" value="&lt;div style=&quot;text-align: start;&quot;&gt;&lt;span style=&quot;background-color: initial;&quot;&gt;&lt;b&gt;epo:LotAwardOutcome&lt;/b&gt;&lt;/span&gt;&lt;/div&gt;" style="rounded=0;whiteSpace=wrap;html=1;snapToPoint=1;points=[[0.1,0],[0.2,0],[0.3,0],[0.4,0],[0.5,0],[0.6,0],[0.7,0],[0.8,0],[0.9,0],[0,0.1],[0,0.3],[0,0.5],[0,0.7],[0,0.9],[0.1,1],[0.2,1],[0.3,1],[0.4,1],[0.5,1],[0.6,1],[0.7,1],[0.8,1],[0.9,1],[1,0.1],[1,0.3],[1,0.5],[1,0.7],[1,0.9]];fontFamily=Helvetica;fontSize=14;fillColor=none;" parent="1" vertex="1">
          <mxGeometry x="-2126.93" y="-14.25" width="260" height="30" as="geometry" />
        </mxCell>
        <mxCell id="UUAXTXCXdKJbw71_6arQ-34" value="epo:hasAwardDecisionDate : xsd:date&lt;br&gt;&lt;b&gt;(TenderResult_AwardDate)&lt;/b&gt;" style="rounded=0;whiteSpace=wrap;html=1;snapToPoint=1;points=[[0.1,0],[0.2,0],[0.3,0],[0.4,0],[0.5,0],[0.6,0],[0.7,0],[0.8,0],[0.9,0],[0,0.1],[0,0.3],[0,0.5],[0,0.7],[0,0.9],[0.1,1],[0.2,1],[0.3,1],[0.4,1],[0.5,1],[0.6,1],[0.7,1],[0.8,1],[0.9,1],[1,0.1],[1,0.3],[1,0.5],[1,0.7],[1,0.9]];fontFamily=Helvetica;fontSize=14;fillColor=none;" parent="1" vertex="1">
          <mxGeometry x="-2126.93" y="15.75" width="260" height="54" as="geometry" />
        </mxCell>
        <mxCell id="UUAXTXCXdKJbw71_6arQ-35" value="&lt;div style=&quot;text-align: start;&quot;&gt;&lt;span style=&quot;background-color: initial;&quot;&gt;&lt;b&gt;epo:TenderAwardOutcome&lt;/b&gt;&lt;/span&gt;&lt;/div&gt;" style="rounded=0;whiteSpace=wrap;html=1;snapToPoint=1;points=[[0.1,0],[0.2,0],[0.3,0],[0.4,0],[0.5,0],[0.6,0],[0.7,0],[0.8,0],[0.9,0],[0,0.1],[0,0.3],[0,0.5],[0,0.7],[0,0.9],[0.1,1],[0.2,1],[0.3,1],[0.4,1],[0.5,1],[0.6,1],[0.7,1],[0.8,1],[0.9,1],[1,0.1],[1,0.3],[1,0.5],[1,0.7],[1,0.9]];fontFamily=Helvetica;fontSize=14;fillColor=none;" parent="1" vertex="1">
          <mxGeometry x="-2106.93" y="157" width="220" height="53" as="geometry" />
        </mxCell>
        <mxCell id="UUAXTXCXdKJbw71_6arQ-40" value="" style="endArrow=classic;html=1;entryX=0.5;entryY=0;entryDx=0;entryDy=0;endSize=8;arcSize=0;rounded=0;exitX=0.5;exitY=1;exitDx=0;exitDy=0;" parent="1" source="UUAXTXCXdKJbw71_6arQ-34" target="UUAXTXCXdKJbw71_6arQ-35" edge="1">
          <mxGeometry width="50" height="50" relative="1" as="geometry">
            <mxPoint x="-1847.4299999999998" y="-361.25" as="sourcePoint" />
            <mxPoint x="-1822.4299999999998" y="-476.25" as="targetPoint" />
          </mxGeometry>
        </mxCell>
        <mxCell id="UUAXTXCXdKJbw71_6arQ-41" value="&lt;div&gt;epo:comprisesTenderAwardOutcome (0..N)&lt;/div&gt;" style="text;html=1;align=center;verticalAlign=middle;resizable=0;points=[];labelBackgroundColor=#ffffff;" parent="UUAXTXCXdKJbw71_6arQ-40" vertex="1" connectable="0">
          <mxGeometry x="-0.1269" relative="1" as="geometry">
            <mxPoint y="-1" as="offset" />
          </mxGeometry>
        </mxCell>
        <mxCell id="UUAXTXCXdKJbw71_6arQ-42" value="" style="endArrow=classic;html=1;endSize=8;arcSize=0;rounded=0;exitX=1;exitY=0.5;exitDx=0;exitDy=0;entryX=0;entryY=0.5;entryDx=0;entryDy=0;" parent="1" source="UUAXTXCXdKJbw71_6arQ-33" target="UUAXTXCXdKJbw71_6arQ-7" edge="1">
          <mxGeometry width="50" height="50" relative="1" as="geometry">
            <mxPoint x="-1964.4299999999998" y="196.75" as="sourcePoint" />
            <mxPoint x="-1774.4299999999998" y="246.75" as="targetPoint" />
            <Array as="points">
              <mxPoint x="-1834.4299999999998" y="1" />
              <mxPoint x="-1834.4299999999998" y="-162" />
            </Array>
          </mxGeometry>
        </mxCell>
        <mxCell id="UUAXTXCXdKJbw71_6arQ-43" value="&lt;div&gt;epo:describesLot&lt;/div&gt;" style="text;html=1;align=center;verticalAlign=middle;resizable=0;points=[];labelBackgroundColor=#ffffff;" parent="UUAXTXCXdKJbw71_6arQ-42" vertex="1" connectable="0">
          <mxGeometry x="-0.1269" relative="1" as="geometry">
            <mxPoint y="11" as="offset" />
          </mxGeometry>
        </mxCell>
        <mxCell id="UUAXTXCXdKJbw71_6arQ-44" value="" style="endArrow=classic;html=1;exitX=1;exitY=0.5;exitDx=0;exitDy=0;endSize=8;arcSize=0;rounded=0;entryX=0;entryY=0.7;entryDx=0;entryDy=0;" parent="1" source="UUAXTXCXdKJbw71_6arQ-35" target="UUAXTXCXdKJbw71_6arQ-22" edge="1">
          <mxGeometry width="50" height="50" relative="1" as="geometry">
            <mxPoint x="-1967.4299999999998" y="-217.25" as="sourcePoint" />
            <mxPoint x="-2154.43" y="556.75" as="targetPoint" />
            <Array as="points">
              <mxPoint x="-1714" y="184" />
              <mxPoint x="-1714.4299999999998" y="66" />
            </Array>
          </mxGeometry>
        </mxCell>
        <mxCell id="UUAXTXCXdKJbw71_6arQ-45" value="&lt;div&gt;epo:describesTender&lt;/div&gt;" style="text;html=1;align=center;verticalAlign=middle;resizable=0;points=[];labelBackgroundColor=#ffffff;" parent="UUAXTXCXdKJbw71_6arQ-44" vertex="1" connectable="0">
          <mxGeometry x="-0.1269" relative="1" as="geometry">
            <mxPoint x="-94" y="5" as="offset" />
          </mxGeometry>
        </mxCell>
        <mxCell id="UUAXTXCXdKJbw71_6arQ-48" value="" style="endArrow=classic;html=1;exitX=0;exitY=0.5;exitDx=0;exitDy=0;endSize=8;arcSize=0;rounded=0;entryX=1;entryY=0.5;entryDx=0;entryDy=0;" parent="1" source="EqtquCx9TaFXY-XCjnWr-50" target="UUAXTXCXdKJbw71_6arQ-22" edge="1">
          <mxGeometry width="50" height="50" relative="1" as="geometry">
            <mxPoint x="-1032.4299999999998" y="345.0000000000002" as="sourcePoint" />
            <mxPoint x="-1224.4299999999998" y="355" as="targetPoint" />
          </mxGeometry>
        </mxCell>
        <mxCell id="UUAXTXCXdKJbw71_6arQ-49" value="epo:includesTender (0..N)" style="text;html=1;align=center;verticalAlign=middle;resizable=0;points=[];labelBackgroundColor=#ffffff;" parent="UUAXTXCXdKJbw71_6arQ-48" vertex="1" connectable="0">
          <mxGeometry x="-0.1269" relative="1" as="geometry">
            <mxPoint x="-11" y="-1" as="offset" />
          </mxGeometry>
        </mxCell>
        <mxCell id="UUAXTXCXdKJbw71_6arQ-52" value="" style="endArrow=classic;html=1;endSize=8;arcSize=0;rounded=0;entryX=1;entryY=0.5;entryDx=0;entryDy=0;exitX=0.1;exitY=0;exitDx=0;exitDy=0;" parent="1" source="EqtquCx9TaFXY-XCjnWr-50" target="UUAXTXCXdKJbw71_6arQ-7" edge="1">
          <mxGeometry width="50" height="50" relative="1" as="geometry">
            <mxPoint x="-764.43" y="1118" as="sourcePoint" />
            <mxPoint x="-1878.23" y="568" as="targetPoint" />
            <Array as="points">
              <mxPoint x="-1172.4299999999998" y="-31" />
              <mxPoint x="-1354.4299999999998" y="-31" />
              <mxPoint x="-1354.4299999999998" y="-162" />
            </Array>
          </mxGeometry>
        </mxCell>
        <mxCell id="UUAXTXCXdKJbw71_6arQ-53" value="epo:includesLot (1..N)" style="text;html=1;align=center;verticalAlign=middle;resizable=0;points=[];labelBackgroundColor=#ffffff;" parent="UUAXTXCXdKJbw71_6arQ-52" vertex="1" connectable="0">
          <mxGeometry x="-0.1269" relative="1" as="geometry">
            <mxPoint x="83" y="40" as="offset" />
          </mxGeometry>
        </mxCell>
        <mxCell id="UUAXTXCXdKJbw71_6arQ-65" value="" style="endArrow=block;html=1;fontColor=#000099;exitX=0.5;exitY=0;exitDx=0;exitDy=0;endFill=0;endSize=8;arcSize=0;rounded=0;entryX=0.1;entryY=1;entryDx=0;entryDy=0;" parent="1" source="UUAXTXCXdKJbw71_6arQ-5" target="UUAXTXCXdKJbw71_6arQ-68" edge="1">
          <mxGeometry width="50" height="50" relative="1" as="geometry">
            <mxPoint x="-1683.4299999999998" y="-354" as="sourcePoint" />
            <mxPoint x="-1786.4300000000003" y="-420.9999999999998" as="targetPoint" />
          </mxGeometry>
        </mxCell>
        <mxCell id="UUAXTXCXdKJbw71_6arQ-68" value="&lt;div style=&quot;text-align: start;&quot;&gt;&lt;span style=&quot;background-color: initial;&quot;&gt;&lt;b&gt;epo:ProcurementObject&lt;/b&gt;&lt;/span&gt;&lt;/div&gt;" style="rounded=0;whiteSpace=wrap;html=1;snapToPoint=1;points=[[0.1,0],[0.2,0],[0.3,0],[0.4,0],[0.5,0],[0.6,0],[0.7,0],[0.8,0],[0.9,0],[0,0.1],[0,0.3],[0,0.5],[0,0.7],[0,0.9],[0.1,1],[0.2,1],[0.3,1],[0.4,1],[0.5,1],[0.6,1],[0.7,1],[0.8,1],[0.9,1],[1,0.1],[1,0.3],[1,0.5],[1,0.7],[1,0.9]];fontFamily=Helvetica;fontSize=14;fillColor=none;" parent="1" vertex="1">
          <mxGeometry x="-1904.55" y="-514.25" width="236.25" height="58.5" as="geometry" />
        </mxCell>
        <mxCell id="UUAXTXCXdKJbw71_6arQ-70" value="&lt;div style=&quot;text-align: start;&quot;&gt;&lt;span style=&quot;background-color: initial;&quot;&gt;&lt;b&gt;epo:Identifier&lt;/b&gt;&lt;/span&gt;&lt;/div&gt;" style="rounded=0;whiteSpace=wrap;html=1;snapToPoint=1;points=[[0.1,0],[0.2,0],[0.3,0],[0.4,0],[0.5,0],[0.6,0],[0.7,0],[0.8,0],[0.9,0],[0,0.1],[0,0.3],[0,0.5],[0,0.7],[0,0.9],[0.1,1],[0.2,1],[0.3,1],[0.4,1],[0.5,1],[0.6,1],[0.7,1],[0.8,1],[0.9,1],[1,0.1],[1,0.3],[1,0.5],[1,0.7],[1,0.9]];fontFamily=Helvetica;fontSize=14;fillColor=none;" parent="1" vertex="1">
          <mxGeometry x="-1540.4299999999998" y="-582.75" width="240" height="30" as="geometry" />
        </mxCell>
        <mxCell id="UUAXTXCXdKJbw71_6arQ-71" value="epo:hasIdentifierValue : rdfs:Literal&lt;br&gt;&lt;b style=&quot;&quot;&gt;(id?) &lt;br&gt;(ContractFolderID)&lt;br&gt;&lt;/b&gt;&lt;b style=&quot;border-color: var(--border-color);&quot;&gt;(ProcurementProjectLot_ID)&lt;/b&gt;&lt;br&gt;epo:hasSchemeURI : xsd:anyURI&lt;br&gt;&lt;b style=&quot;border-color: var(--border-color);&quot;&gt;(id?)&lt;/b&gt;&lt;u&gt;&lt;br&gt;&lt;/u&gt;" style="rounded=0;whiteSpace=wrap;html=1;snapToPoint=1;points=[[0.1,0],[0.2,0],[0.3,0],[0.4,0],[0.5,0],[0.6,0],[0.7,0],[0.8,0],[0.9,0],[0,0.1],[0,0.3],[0,0.5],[0,0.7],[0,0.9],[0.1,1],[0.2,1],[0.3,1],[0.4,1],[0.5,1],[0.6,1],[0.7,1],[0.8,1],[0.9,1],[1,0.1],[1,0.3],[1,0.5],[1,0.7],[1,0.9]];fontFamily=Helvetica;fontSize=14;fillColor=none;" parent="1" vertex="1">
          <mxGeometry x="-1540.4299999999998" y="-552.75" width="240" height="106" as="geometry" />
        </mxCell>
        <mxCell id="UUAXTXCXdKJbw71_6arQ-72" value="" style="endArrow=classic;html=1;endSize=8;arcSize=0;rounded=0;exitX=1;exitY=0.5;exitDx=0;exitDy=0;entryX=0;entryY=0.639;entryDx=0;entryDy=0;entryPerimeter=0;" parent="1" source="UUAXTXCXdKJbw71_6arQ-68" target="UUAXTXCXdKJbw71_6arQ-71" edge="1">
          <mxGeometry width="50" height="50" relative="1" as="geometry">
            <mxPoint x="-1644.4299999999998" y="-501" as="sourcePoint" />
            <mxPoint x="-1534.4299999999998" y="-481" as="targetPoint" />
          </mxGeometry>
        </mxCell>
        <mxCell id="UUAXTXCXdKJbw71_6arQ-73" value="&lt;div&gt;epo:hasID&lt;/div&gt;" style="text;html=1;align=center;verticalAlign=middle;resizable=0;points=[];labelBackgroundColor=#ffffff;" parent="UUAXTXCXdKJbw71_6arQ-72" vertex="1" connectable="0">
          <mxGeometry x="-0.1269" relative="1" as="geometry">
            <mxPoint x="-1" as="offset" />
          </mxGeometry>
        </mxCell>
        <mxCell id="MEEZrl42BW_mozDW1V4v-1" value="" style="endArrow=classic;html=1;endSize=8;arcSize=0;rounded=0;exitX=0.5;exitY=0;exitDx=0;exitDy=0;entryX=0.5;entryY=1;entryDx=0;entryDy=0;" parent="1" source="EqtquCx9TaFXY-XCjnWr-50" target="tYJ4tYIWKtcqoDwBPRuW-2" edge="1">
          <mxGeometry width="50" height="50" relative="1" as="geometry">
            <mxPoint x="-465.1099999999998" y="274" as="sourcePoint" />
            <mxPoint x="-645.11" y="399" as="targetPoint" />
            <Array as="points" />
          </mxGeometry>
        </mxCell>
        <mxCell id="MEEZrl42BW_mozDW1V4v-2" value="epo:bindsBuyer (0..N)" style="text;html=1;align=center;verticalAlign=middle;resizable=0;points=[];labelBackgroundColor=#ffffff;" parent="MEEZrl42BW_mozDW1V4v-1" vertex="1" connectable="0">
          <mxGeometry x="-0.1269" relative="1" as="geometry">
            <mxPoint x="2" y="-2" as="offset" />
          </mxGeometry>
        </mxCell>
        <mxCell id="MEEZrl42BW_mozDW1V4v-3" value="" style="endArrow=block;html=1;fontColor=#000099;endFill=0;endSize=8;arcSize=0;rounded=0;entryX=1;entryY=0.5;entryDx=0;entryDy=0;exitX=0;exitY=0.5;exitDx=0;exitDy=0;" parent="1" source="MEEZrl42BW_mozDW1V4v-8" target="tYJ4tYIWKtcqoDwBPRuW-1" edge="1">
          <mxGeometry width="50" height="50" relative="1" as="geometry">
            <mxPoint x="-762.61" y="-141" as="sourcePoint" />
            <mxPoint x="-854.61" y="-135" as="targetPoint" />
            <Array as="points" />
          </mxGeometry>
        </mxCell>
        <mxCell id="MEEZrl42BW_mozDW1V4v-8" value="&lt;span style=&quot;border-color: var(--border-color);&quot;&gt;&lt;b&gt;epo:CentralPurchasingBody&lt;/b&gt;&lt;br&gt;&lt;/span&gt;" style="rounded=0;whiteSpace=wrap;html=1;snapToPoint=1;points=[[0.1,0],[0.2,0],[0.3,0],[0.4,0],[0.5,0],[0.6,0],[0.7,0],[0.8,0],[0.9,0],[0,0.1],[0,0.3],[0,0.5],[0,0.7],[0,0.9],[0.1,1],[0.2,1],[0.3,1],[0.4,1],[0.5,1],[0.6,1],[0.7,1],[0.8,1],[0.9,1],[1,0.1],[1,0.3],[1,0.5],[1,0.7],[1,0.9]];fontFamily=Helvetica;fontSize=14;fillColor=none;" parent="1" vertex="1">
          <mxGeometry x="-837.61" y="-140" width="310" height="30" as="geometry" />
        </mxCell>
        <mxCell id="MEEZrl42BW_mozDW1V4v-9" value="&lt;span style=&quot;border-color: var(--border-color);&quot;&gt;nextproc:l&lt;span style=&quot;border-color: var(--border-color);&quot;&gt;ocatedContractingPartyID&lt;/span&gt;&amp;nbsp;: string&lt;br&gt;nextproc:locatedContractingPartyName&amp;nbsp;: string&lt;br&gt;&lt;/span&gt;" style="rounded=0;whiteSpace=wrap;html=1;snapToPoint=1;points=[[0.1,0],[0.2,0],[0.3,0],[0.4,0],[0.5,0],[0.6,0],[0.7,0],[0.8,0],[0.9,0],[0,0.1],[0,0.3],[0,0.5],[0,0.7],[0,0.9],[0.1,1],[0.2,1],[0.3,1],[0.4,1],[0.5,1],[0.6,1],[0.7,1],[0.8,1],[0.9,1],[1,0.1],[1,0.3],[1,0.5],[1,0.7],[1,0.9]];fontFamily=Helvetica;fontSize=14;fillColor=none;" parent="1" vertex="1">
          <mxGeometry x="-837.61" y="-110" width="310" height="59" as="geometry" />
        </mxCell>
        <mxCell id="MEEZrl42BW_mozDW1V4v-16" value="&lt;font style=&quot;font-size: 24px;&quot;&gt;MISSING VARIABLES&lt;/font&gt;" style="swimlane;fontStyle=0;childLayout=stackLayout;horizontal=1;startSize=50;horizontalStack=0;resizeParent=1;resizeParentMax=0;resizeLast=0;collapsible=1;marginBottom=0;whiteSpace=wrap;html=1;" parent="1" vertex="1">
          <mxGeometry x="-630" y="-1093" width="580" height="570" as="geometry" />
        </mxCell>
        <mxCell id="MEEZrl42BW_mozDW1V4v-17" value="&lt;font style=&quot;font-size: 18px;&quot;&gt;summary&lt;/font&gt;" style="text;strokeColor=none;fillColor=none;align=left;verticalAlign=middle;spacingLeft=4;spacingRight=4;overflow=hidden;points=[[0,0.5],[1,0.5]];portConstraint=eastwest;rotatable=0;whiteSpace=wrap;html=1;" parent="MEEZrl42BW_mozDW1V4v-16" vertex="1">
          <mxGeometry y="50" width="580" height="40" as="geometry" />
        </mxCell>
        <mxCell id="MEEZrl42BW_mozDW1V4v-18" value="&lt;font style=&quot;font-size: 18px;&quot;&gt;updated&lt;/font&gt;" style="text;strokeColor=none;fillColor=none;align=left;verticalAlign=middle;spacingLeft=4;spacingRight=4;overflow=hidden;points=[[0,0.5],[1,0.5]];portConstraint=eastwest;rotatable=0;whiteSpace=wrap;html=1;" parent="MEEZrl42BW_mozDW1V4v-16" vertex="1">
          <mxGeometry y="90" width="580" height="40" as="geometry" />
        </mxCell>
        <mxCell id="MEEZrl42BW_mozDW1V4v-22" value="&lt;font style=&quot;font-size: 18px;&quot;&gt;LocatedContractingParty_LosQueSeRepiten&lt;/font&gt;" style="text;strokeColor=none;fillColor=none;align=left;verticalAlign=middle;spacingLeft=4;spacingRight=4;overflow=hidden;points=[[0,0.5],[1,0.5]];portConstraint=eastwest;rotatable=0;whiteSpace=wrap;html=1;" parent="MEEZrl42BW_mozDW1V4v-16" vertex="1">
          <mxGeometry y="130" width="580" height="40" as="geometry" />
        </mxCell>
        <mxCell id="WHbFI5c_Wu-xMdbz2nJR-17" value="&lt;font style=&quot;font-size: 18px;&quot;&gt;ProcurementProject_CountrySubentity&lt;/font&gt;" style="text;strokeColor=none;fillColor=none;align=left;verticalAlign=middle;spacingLeft=4;spacingRight=4;overflow=hidden;points=[[0,0.5],[1,0.5]];portConstraint=eastwest;rotatable=0;whiteSpace=wrap;html=1;" parent="MEEZrl42BW_mozDW1V4v-16" vertex="1">
          <mxGeometry y="170" width="580" height="40" as="geometry" />
        </mxCell>
        <mxCell id="WHbFI5c_Wu-xMdbz2nJR-19" value="&lt;span style=&quot;border-color: var(--border-color); text-align: center;&quot;&gt;&lt;font style=&quot;font-size: 18px;&quot;&gt;TenderingProcess_TenderSubmissionDeadlinePeriod_Description&lt;/font&gt;&lt;/span&gt;" style="text;strokeColor=none;fillColor=none;align=left;verticalAlign=middle;spacingLeft=4;spacingRight=4;overflow=hidden;points=[[0,0.5],[1,0.5]];portConstraint=eastwest;rotatable=0;whiteSpace=wrap;html=1;" parent="MEEZrl42BW_mozDW1V4v-16" vertex="1">
          <mxGeometry y="210" width="580" height="40" as="geometry" />
        </mxCell>
        <mxCell id="hxGnDRO2k2o7Q61DhqwJ-11" value="&lt;font style=&quot;font-size: 18px;&quot;&gt;&lt;span style=&quot;border-color: var(--border-color); text-align: center;&quot;&gt;TenderingProcess_ParticipationRequestReceptionPeriod&lt;/span&gt;&lt;span style=&quot;border-color: var(--border-color); text-align: center;&quot;&gt;_Description&lt;/span&gt;&lt;/font&gt;" style="text;strokeColor=none;fillColor=none;align=left;verticalAlign=middle;spacingLeft=4;spacingRight=4;overflow=hidden;points=[[0,0.5],[1,0.5]];portConstraint=eastwest;rotatable=0;whiteSpace=wrap;html=1;" parent="MEEZrl42BW_mozDW1V4v-16" vertex="1">
          <mxGeometry y="250" width="580" height="40" as="geometry" />
        </mxCell>
        <mxCell id="f5XXGPpHDuEVfZ7KGFvx-12" value="&lt;div style=&quot;text-align: center;&quot;&gt;&lt;span style=&quot;font-size: 18px;&quot;&gt;TenderResult_ProcurementProjectLotID&lt;/span&gt;&lt;/div&gt;" style="text;strokeColor=none;fillColor=none;align=left;verticalAlign=middle;spacingLeft=4;spacingRight=4;overflow=hidden;points=[[0,0.5],[1,0.5]];portConstraint=eastwest;rotatable=0;whiteSpace=wrap;html=1;" parent="MEEZrl42BW_mozDW1V4v-16" vertex="1">
          <mxGeometry y="290" width="580" height="40" as="geometry" />
        </mxCell>
        <mxCell id="f5XXGPpHDuEVfZ7KGFvx-15" value="&lt;div style=&quot;text-align: center;&quot;&gt;&lt;/div&gt;&lt;font style=&quot;font-size: 18px;&quot;&gt;LegalDocumentReference_ID&lt;/font&gt;" style="text;strokeColor=none;fillColor=none;align=left;verticalAlign=middle;spacingLeft=4;spacingRight=4;overflow=hidden;points=[[0,0.5],[1,0.5]];portConstraint=eastwest;rotatable=0;whiteSpace=wrap;html=1;" parent="MEEZrl42BW_mozDW1V4v-16" vertex="1">
          <mxGeometry y="330" width="580" height="40" as="geometry" />
        </mxCell>
        <mxCell id="f5XXGPpHDuEVfZ7KGFvx-16" value="&lt;div style=&quot;text-align: center;&quot;&gt;&lt;/div&gt;&lt;font style=&quot;font-size: 18px;&quot;&gt;LegalDocumentReference_URI&lt;/font&gt;" style="text;strokeColor=none;fillColor=none;align=left;verticalAlign=middle;spacingLeft=4;spacingRight=4;overflow=hidden;points=[[0,0.5],[1,0.5]];portConstraint=eastwest;rotatable=0;whiteSpace=wrap;html=1;" parent="MEEZrl42BW_mozDW1V4v-16" vertex="1">
          <mxGeometry y="370" width="580" height="40" as="geometry" />
        </mxCell>
        <mxCell id="f5XXGPpHDuEVfZ7KGFvx-17" value="&lt;div style=&quot;text-align: center;&quot;&gt;&lt;/div&gt;&lt;font style=&quot;font-size: 18px;&quot;&gt;TechnicalDocumentReference_ID&lt;/font&gt;" style="text;strokeColor=none;fillColor=none;align=left;verticalAlign=middle;spacingLeft=4;spacingRight=4;overflow=hidden;points=[[0,0.5],[1,0.5]];portConstraint=eastwest;rotatable=0;whiteSpace=wrap;html=1;" parent="MEEZrl42BW_mozDW1V4v-16" vertex="1">
          <mxGeometry y="410" width="580" height="40" as="geometry" />
        </mxCell>
        <mxCell id="f5XXGPpHDuEVfZ7KGFvx-18" value="&lt;div style=&quot;text-align: center;&quot;&gt;&lt;/div&gt;&lt;font style=&quot;font-size: 18px;&quot;&gt;TechnicalDocumentReference_URI&lt;/font&gt;" style="text;strokeColor=none;fillColor=none;align=left;verticalAlign=middle;spacingLeft=4;spacingRight=4;overflow=hidden;points=[[0,0.5],[1,0.5]];portConstraint=eastwest;rotatable=0;whiteSpace=wrap;html=1;" parent="MEEZrl42BW_mozDW1V4v-16" vertex="1">
          <mxGeometry y="450" width="580" height="40" as="geometry" />
        </mxCell>
        <mxCell id="f5XXGPpHDuEVfZ7KGFvx-19" value="&lt;div style=&quot;text-align: center;&quot;&gt;&lt;/div&gt;&lt;font style=&quot;font-size: 18px;&quot;&gt;AdditionalDocumentReference_ID&lt;/font&gt;" style="text;strokeColor=none;fillColor=none;align=left;verticalAlign=middle;spacingLeft=4;spacingRight=4;overflow=hidden;points=[[0,0.5],[1,0.5]];portConstraint=eastwest;rotatable=0;whiteSpace=wrap;html=1;" parent="MEEZrl42BW_mozDW1V4v-16" vertex="1">
          <mxGeometry y="490" width="580" height="40" as="geometry" />
        </mxCell>
        <mxCell id="f5XXGPpHDuEVfZ7KGFvx-20" value="&lt;div style=&quot;text-align: center;&quot;&gt;&lt;/div&gt;&lt;font style=&quot;font-size: 18px;&quot;&gt;AdditionalDocumentReference_URI&lt;/font&gt;" style="text;strokeColor=none;fillColor=none;align=left;verticalAlign=middle;spacingLeft=4;spacingRight=4;overflow=hidden;points=[[0,0.5],[1,0.5]];portConstraint=eastwest;rotatable=0;whiteSpace=wrap;html=1;" parent="MEEZrl42BW_mozDW1V4v-16" vertex="1">
          <mxGeometry y="530" width="580" height="40" as="geometry" />
        </mxCell>
        <mxCell id="WHbFI5c_Wu-xMdbz2nJR-1" value="&lt;b style=&quot;border-color: var(--border-color);&quot;&gt;epo:MonetaryValue&lt;br&gt;&lt;/b&gt;" style="rounded=0;whiteSpace=wrap;html=1;snapToPoint=1;points=[[0.1,0],[0.2,0],[0.3,0],[0.4,0],[0.5,0],[0.6,0],[0.7,0],[0.8,0],[0.9,0],[0,0.1],[0,0.3],[0,0.5],[0,0.7],[0,0.9],[0.1,1],[0.2,1],[0.3,1],[0.4,1],[0.5,1],[0.6,1],[0.7,1],[0.8,1],[0.9,1],[1,0.1],[1,0.3],[1,0.5],[1,0.7],[1,0.9]];fontFamily=Helvetica;fontSize=14;fillColor=none;" parent="1" vertex="1">
          <mxGeometry x="-1262.11" y="217" width="390" height="30" as="geometry" />
        </mxCell>
        <mxCell id="WHbFI5c_Wu-xMdbz2nJR-2" value="&lt;span style=&quot;border-color: var(--border-color);&quot;&gt;epo:hasAmountValue : xsd:decimal&lt;br&gt;&lt;b style=&quot;border-color: var(--border-color);&quot;&gt;(ProcurementProject_EstimatedOverallContractAmount / TaxExclusiveAmount / TotalAmount)&lt;br&gt;&lt;/b&gt;&lt;b style=&quot;border-color: var(--border-color);&quot;&gt;(ProcurementProjectLot_TaxExclusiveAmount / TotalAmount)&lt;br&gt;&lt;br&gt;&lt;/b&gt;&lt;b style=&quot;border-color: var(--border-color);&quot;&gt;(TenderResult_TaxExclusiveAmount / PayableAmount)&lt;/b&gt;&lt;br&gt;&lt;/span&gt;" style="rounded=0;whiteSpace=wrap;html=1;snapToPoint=1;points=[[0.1,0],[0.2,0],[0.3,0],[0.4,0],[0.5,0],[0.6,0],[0.7,0],[0.8,0],[0.9,0],[0,0.1],[0,0.3],[0,0.5],[0,0.7],[0,0.9],[0.1,1],[0.2,1],[0.3,1],[0.4,1],[0.5,1],[0.6,1],[0.7,1],[0.8,1],[0.9,1],[1,0.1],[1,0.3],[1,0.5],[1,0.7],[1,0.9]];fontFamily=Helvetica;fontSize=14;fillColor=none;" parent="1" vertex="1">
          <mxGeometry x="-1262.11" y="247" width="390" height="133" as="geometry" />
        </mxCell>
        <mxCell id="WHbFI5c_Wu-xMdbz2nJR-3" value="" style="endArrow=classic;html=1;endSize=8;arcSize=0;rounded=0;exitX=0.5;exitY=1;exitDx=0;exitDy=0;entryX=0.5;entryY=0;entryDx=0;entryDy=0;" parent="1" source="EqtquCx9TaFXY-XCjnWr-51" target="WHbFI5c_Wu-xMdbz2nJR-1" edge="1">
          <mxGeometry width="50" height="50" relative="1" as="geometry">
            <mxPoint x="-555.11" y="29" as="sourcePoint" />
            <mxPoint x="-180.1099999999998" y="23" as="targetPoint" />
            <Array as="points" />
          </mxGeometry>
        </mxCell>
        <mxCell id="WHbFI5c_Wu-xMdbz2nJR-4" value="epo:hasContractValue (0..1)" style="text;html=1;align=center;verticalAlign=middle;resizable=0;points=[];labelBackgroundColor=#ffffff;" parent="WHbFI5c_Wu-xMdbz2nJR-3" vertex="1" connectable="0">
          <mxGeometry x="-0.1269" relative="1" as="geometry">
            <mxPoint x="7" y="-1" as="offset" />
          </mxGeometry>
        </mxCell>
        <mxCell id="WHbFI5c_Wu-xMdbz2nJR-6" value="&lt;font style=&quot;font-size: 18px;&quot;&gt;Version 4.0.0&amp;nbsp;&lt;/font&gt;" style="text;html=1;align=center;verticalAlign=middle;resizable=0;points=[];autosize=1;strokeColor=none;fillColor=none;" parent="1" vertex="1">
          <mxGeometry x="-920" y="117" width="130" height="40" as="geometry" />
        </mxCell>
        <mxCell id="WHbFI5c_Wu-xMdbz2nJR-7" value="&lt;div style=&quot;text-align: start;&quot;&gt;&lt;span style=&quot;background-color: initial;&quot;&gt;&lt;b&gt;epo:Purpose&lt;/b&gt;&lt;/span&gt;&lt;/div&gt;" style="rounded=0;whiteSpace=wrap;html=1;snapToPoint=1;points=[[0.1,0],[0.2,0],[0.3,0],[0.4,0],[0.5,0],[0.6,0],[0.7,0],[0.8,0],[0.9,0],[0,0.1],[0,0.3],[0,0.5],[0,0.7],[0,0.9],[0.1,1],[0.2,1],[0.3,1],[0.4,1],[0.5,1],[0.6,1],[0.7,1],[0.8,1],[0.9,1],[1,0.1],[1,0.3],[1,0.5],[1,0.7],[1,0.9]];fontFamily=Helvetica;fontSize=14;fillColor=none;" parent="1" vertex="1">
          <mxGeometry x="-2193.43" y="-500" width="150" height="30" as="geometry" />
        </mxCell>
        <mxCell id="WHbFI5c_Wu-xMdbz2nJR-9" value="" style="endArrow=classic;html=1;endSize=8;arcSize=0;rounded=0;entryX=1;entryY=0.5;entryDx=0;entryDy=0;exitX=0;exitY=0.5;exitDx=0;exitDy=0;" parent="1" source="UUAXTXCXdKJbw71_6arQ-68" target="WHbFI5c_Wu-xMdbz2nJR-7" edge="1">
          <mxGeometry width="50" height="50" relative="1" as="geometry">
            <mxPoint x="-2554.43" y="-396" as="sourcePoint" />
            <mxPoint x="-2422.34" y="-411" as="targetPoint" />
          </mxGeometry>
        </mxCell>
        <mxCell id="WHbFI5c_Wu-xMdbz2nJR-10" value="&lt;div&gt;epo:hasPurpose&lt;/div&gt;" style="text;html=1;align=center;verticalAlign=middle;resizable=0;points=[];labelBackgroundColor=#ffffff;" parent="WHbFI5c_Wu-xMdbz2nJR-9" vertex="1" connectable="0">
          <mxGeometry x="-0.1269" relative="1" as="geometry">
            <mxPoint x="-7" as="offset" />
          </mxGeometry>
        </mxCell>
        <mxCell id="WHbFI5c_Wu-xMdbz2nJR-11" value="&lt;div style=&quot;text-align: start;&quot;&gt;&lt;span style=&quot;background-color: initial;&quot;&gt;at-voc:cpysuppl&lt;/span&gt;&lt;/div&gt;" style="rounded=0;whiteSpace=wrap;html=1;snapToPoint=1;points=[[0.1,0],[0.2,0],[0.3,0],[0.4,0],[0.5,0],[0.6,0],[0.7,0],[0.8,0],[0.9,0],[0,0.1],[0,0.3],[0,0.5],[0,0.7],[0,0.9],[0.1,1],[0.2,1],[0.3,1],[0.4,1],[0.5,1],[0.6,1],[0.7,1],[0.8,1],[0.9,1],[1,0.1],[1,0.3],[1,0.5],[1,0.7],[1,0.9]];fontFamily=Helvetica;fontSize=14;fillColor=none;" parent="1" vertex="1">
          <mxGeometry x="-2218.43" y="-651" width="200" height="40" as="geometry" />
        </mxCell>
        <mxCell id="WHbFI5c_Wu-xMdbz2nJR-12" value="" style="endArrow=classic;html=1;endSize=8;arcSize=0;rounded=0;entryX=0.5;entryY=1;entryDx=0;entryDy=0;exitX=0.5;exitY=0;exitDx=0;exitDy=0;" parent="1" source="WHbFI5c_Wu-xMdbz2nJR-7" target="WHbFI5c_Wu-xMdbz2nJR-11" edge="1">
          <mxGeometry width="50" height="50" relative="1" as="geometry">
            <mxPoint x="-1763.4299999999998" y="-475" as="sourcePoint" />
            <mxPoint x="-2241.34" y="-440" as="targetPoint" />
          </mxGeometry>
        </mxCell>
        <mxCell id="WHbFI5c_Wu-xMdbz2nJR-13" value="&lt;div&gt;epo:hasMainClassification&amp;nbsp;&lt;/div&gt;&lt;div&gt;&lt;b&gt;(ProcurementProject_ItemClassificationCode - CPV)&lt;/b&gt;&lt;/div&gt;&lt;div&gt;&lt;b style=&quot;border-color: var(--border-color);&quot;&gt;(ProcurementProjectLot_ItemClassificationCode - CPV)&lt;/b&gt;&lt;b&gt;&lt;br&gt;&lt;/b&gt;&lt;/div&gt;" style="text;html=1;align=center;verticalAlign=middle;resizable=0;points=[];labelBackgroundColor=#ffffff;" parent="WHbFI5c_Wu-xMdbz2nJR-12" vertex="1" connectable="0">
          <mxGeometry x="-0.1269" relative="1" as="geometry">
            <mxPoint x="-1" as="offset" />
          </mxGeometry>
        </mxCell>
        <mxCell id="WHbFI5c_Wu-xMdbz2nJR-20" value="&lt;div style=&quot;text-align: start;&quot;&gt;&lt;span style=&quot;background-color: initial;&quot;&gt;&lt;b&gt;epo:ContractTerm&lt;/b&gt;&lt;/span&gt;&lt;/div&gt;" style="rounded=0;whiteSpace=wrap;html=1;snapToPoint=1;points=[[0.1,0],[0.2,0],[0.3,0],[0.4,0],[0.5,0],[0.6,0],[0.7,0],[0.8,0],[0.9,0],[0,0.1],[0,0.3],[0,0.5],[0,0.7],[0,0.9],[0.1,1],[0.2,1],[0.3,1],[0.4,1],[0.5,1],[0.6,1],[0.7,1],[0.8,1],[0.9,1],[1,0.1],[1,0.3],[1,0.5],[1,0.7],[1,0.9]];fontFamily=Helvetica;fontSize=14;fillColor=none;" parent="1" vertex="1">
          <mxGeometry x="-1519.4299999999998" y="-835" width="170" height="30" as="geometry" />
        </mxCell>
        <mxCell id="WHbFI5c_Wu-xMdbz2nJR-23" value="&lt;div style=&quot;text-align: start;&quot;&gt;&lt;span style=&quot;background-color: initial;&quot;&gt;&lt;b&gt;epo:ContractSpecificTerm&lt;/b&gt;&lt;/span&gt;&lt;/div&gt;" style="rounded=0;whiteSpace=wrap;html=1;snapToPoint=1;points=[[0.1,0],[0.2,0],[0.3,0],[0.4,0],[0.5,0],[0.6,0],[0.7,0],[0.8,0],[0.9,0],[0,0.1],[0,0.3],[0,0.5],[0,0.7],[0,0.9],[0.1,1],[0.2,1],[0.3,1],[0.4,1],[0.5,1],[0.6,1],[0.7,1],[0.8,1],[0.9,1],[1,0.1],[1,0.3],[1,0.5],[1,0.7],[1,0.9]];fontFamily=Helvetica;fontSize=14;fillColor=none;" parent="1" vertex="1">
          <mxGeometry x="-1534.4299999999998" y="-748" width="200" height="30" as="geometry" />
        </mxCell>
        <mxCell id="WHbFI5c_Wu-xMdbz2nJR-25" value="" style="endArrow=block;html=1;fontColor=#000099;endFill=0;endSize=8;arcSize=0;rounded=0;exitX=0.5;exitY=1;exitDx=0;exitDy=0;entryX=0.5;entryY=0;entryDx=0;entryDy=0;" parent="1" source="WHbFI5c_Wu-xMdbz2nJR-20" target="WHbFI5c_Wu-xMdbz2nJR-23" edge="1">
          <mxGeometry width="50" height="50" relative="1" as="geometry">
            <mxPoint x="-1866.4299999999998" y="-674" as="sourcePoint" />
            <mxPoint x="-1793.4299999999998" y="-854" as="targetPoint" />
            <Array as="points" />
          </mxGeometry>
        </mxCell>
        <mxCell id="WHbFI5c_Wu-xMdbz2nJR-29" value="" style="endArrow=classic;html=1;exitX=0.8;exitY=0;exitDx=0;exitDy=0;endSize=8;arcSize=0;rounded=0;entryX=0.5;entryY=1;entryDx=0;entryDy=0;" parent="1" source="UUAXTXCXdKJbw71_6arQ-68" target="WHbFI5c_Wu-xMdbz2nJR-23" edge="1">
          <mxGeometry width="50" height="50" relative="1" as="geometry">
            <mxPoint x="-1633.4299999999998" y="-574" as="sourcePoint" />
            <mxPoint x="-1633.4299999999998" y="-495" as="targetPoint" />
            <Array as="points">
              <mxPoint x="-1715.4299999999998" y="-641" />
              <mxPoint x="-1434.4299999999998" y="-641" />
            </Array>
          </mxGeometry>
        </mxCell>
        <mxCell id="WHbFI5c_Wu-xMdbz2nJR-30" value="&lt;div&gt;epo:foreseesContractSpecificTerm (0..N)&lt;/div&gt;" style="text;html=1;align=center;verticalAlign=middle;resizable=0;points=[];labelBackgroundColor=#ffffff;" parent="WHbFI5c_Wu-xMdbz2nJR-29" vertex="1" connectable="0">
          <mxGeometry x="-0.1269" relative="1" as="geometry">
            <mxPoint x="51" y="-1" as="offset" />
          </mxGeometry>
        </mxCell>
        <mxCell id="WHbFI5c_Wu-xMdbz2nJR-31" value="&lt;div style=&quot;text-align: start;&quot;&gt;&lt;span style=&quot;background-color: initial;&quot;&gt;dct:Location&lt;/span&gt;&lt;/div&gt;" style="rounded=0;whiteSpace=wrap;html=1;snapToPoint=1;points=[[0.1,0],[0.2,0],[0.3,0],[0.4,0],[0.5,0],[0.6,0],[0.7,0],[0.8,0],[0.9,0],[0,0.1],[0,0.3],[0,0.5],[0,0.7],[0,0.9],[0.1,1],[0.2,1],[0.3,1],[0.4,1],[0.5,1],[0.6,1],[0.7,1],[0.8,1],[0.9,1],[1,0.1],[1,0.3],[1,0.5],[1,0.7],[1,0.9]];fontFamily=Helvetica;fontSize=14;fillColor=none;" parent="1" vertex="1">
          <mxGeometry x="-1048.4299999999998" y="-835" width="150" height="30" as="geometry" />
        </mxCell>
        <mxCell id="WHbFI5c_Wu-xMdbz2nJR-33" value="" style="endArrow=classic;html=1;exitX=1;exitY=0.5;exitDx=0;exitDy=0;endSize=8;arcSize=0;rounded=0;entryX=0;entryY=0.5;entryDx=0;entryDy=0;" parent="1" source="WHbFI5c_Wu-xMdbz2nJR-20" target="WHbFI5c_Wu-xMdbz2nJR-31" edge="1">
          <mxGeometry width="50" height="50" relative="1" as="geometry">
            <mxPoint x="-1181.4299999999998" y="-770.36" as="sourcePoint" />
            <mxPoint x="-1377.4299999999998" y="-770.36" as="targetPoint" />
          </mxGeometry>
        </mxCell>
        <mxCell id="WHbFI5c_Wu-xMdbz2nJR-34" value="epo:definesSpecificPlaceOfPerformance (0..N)" style="text;html=1;align=center;verticalAlign=middle;resizable=0;points=[];labelBackgroundColor=#ffffff;" parent="WHbFI5c_Wu-xMdbz2nJR-33" vertex="1" connectable="0">
          <mxGeometry x="-0.1269" relative="1" as="geometry">
            <mxPoint x="13" y="-1" as="offset" />
          </mxGeometry>
        </mxCell>
        <mxCell id="WHbFI5c_Wu-xMdbz2nJR-35" value="&lt;div style=&quot;text-align: start;&quot;&gt;&lt;span style=&quot;background-color: initial;&quot;&gt;at-voc:nuts&lt;/span&gt;&lt;/div&gt;" style="rounded=0;whiteSpace=wrap;html=1;snapToPoint=1;points=[[0.1,0],[0.2,0],[0.3,0],[0.4,0],[0.5,0],[0.6,0],[0.7,0],[0.8,0],[0.9,0],[0,0.1],[0,0.3],[0,0.5],[0,0.7],[0,0.9],[0.1,1],[0.2,1],[0.3,1],[0.4,1],[0.5,1],[0.6,1],[0.7,1],[0.8,1],[0.9,1],[1,0.1],[1,0.3],[1,0.5],[1,0.7],[1,0.9]];fontFamily=Helvetica;fontSize=14;fillColor=none;" parent="1" vertex="1">
          <mxGeometry x="-1043.4299999999998" y="-954" width="140" height="40" as="geometry" />
        </mxCell>
        <mxCell id="WHbFI5c_Wu-xMdbz2nJR-37" value="" style="endArrow=classic;html=1;exitX=0.5;exitY=0;exitDx=0;exitDy=0;endSize=8;arcSize=0;rounded=0;entryX=0.5;entryY=1;entryDx=0;entryDy=0;" parent="1" source="WHbFI5c_Wu-xMdbz2nJR-31" target="WHbFI5c_Wu-xMdbz2nJR-35" edge="1">
          <mxGeometry width="50" height="50" relative="1" as="geometry">
            <mxPoint x="-1220.4299999999998" y="-973" as="sourcePoint" />
            <mxPoint x="-1220.4299999999998" y="-854" as="targetPoint" />
          </mxGeometry>
        </mxCell>
        <mxCell id="WHbFI5c_Wu-xMdbz2nJR-38" value="&lt;div&gt;epo:hasNutsCode &lt;b&gt;(ProcurementProject_CountrySubentityCode)&lt;/b&gt;&lt;/div&gt;" style="text;html=1;align=center;verticalAlign=middle;resizable=0;points=[];labelBackgroundColor=#ffffff;" parent="WHbFI5c_Wu-xMdbz2nJR-37" vertex="1" connectable="0">
          <mxGeometry x="-0.1269" relative="1" as="geometry">
            <mxPoint x="-1" as="offset" />
          </mxGeometry>
        </mxCell>
        <mxCell id="WHbFI5c_Wu-xMdbz2nJR-39" value="&lt;div style=&quot;text-align: start;&quot;&gt;&lt;span style=&quot;background-color: initial;&quot;&gt;locn:Address&lt;/span&gt;&lt;/div&gt;" style="rounded=0;whiteSpace=wrap;html=1;snapToPoint=1;points=[[0.1,0],[0.2,0],[0.3,0],[0.4,0],[0.5,0],[0.6,0],[0.7,0],[0.8,0],[0.9,0],[0,0.1],[0,0.3],[0,0.5],[0,0.7],[0,0.9],[0.1,1],[0.2,1],[0.3,1],[0.4,1],[0.5,1],[0.6,1],[0.7,1],[0.8,1],[0.9,1],[1,0.1],[1,0.3],[1,0.5],[1,0.7],[1,0.9]];fontFamily=Helvetica;fontSize=14;fillColor=none;" parent="1" vertex="1">
          <mxGeometry x="-1108.4299999999998" y="-725" width="270" height="30" as="geometry" />
        </mxCell>
        <mxCell id="WHbFI5c_Wu-xMdbz2nJR-40" value="locn:adminUnitL2 : rdfs:Literal&lt;br&gt;&lt;font style=&quot;font-size: 14px;&quot;&gt;&lt;b style=&quot;&quot;&gt;(&lt;/b&gt;&lt;b style=&quot;border-color: var(--border-color); background-color: rgb(255, 255, 255);&quot;&gt;ProcurementProject_AdressCityName&lt;/b&gt;&lt;b style=&quot;&quot;&gt;)&lt;/b&gt;&lt;/font&gt;&lt;u&gt;&lt;br&gt;&lt;/u&gt;" style="rounded=0;whiteSpace=wrap;html=1;snapToPoint=1;points=[[0.1,0],[0.2,0],[0.3,0],[0.4,0],[0.5,0],[0.6,0],[0.7,0],[0.8,0],[0.9,0],[0,0.1],[0,0.3],[0,0.5],[0,0.7],[0,0.9],[0.1,1],[0.2,1],[0.3,1],[0.4,1],[0.5,1],[0.6,1],[0.7,1],[0.8,1],[0.9,1],[1,0.1],[1,0.3],[1,0.5],[1,0.7],[1,0.9]];fontFamily=Helvetica;fontSize=14;fillColor=none;" parent="1" vertex="1">
          <mxGeometry x="-1108.4299999999998" y="-695" width="270" height="60" as="geometry" />
        </mxCell>
        <mxCell id="WHbFI5c_Wu-xMdbz2nJR-41" value="" style="endArrow=classic;html=1;exitX=0.5;exitY=1;exitDx=0;exitDy=0;endSize=8;arcSize=0;rounded=0;entryX=0.5;entryY=0;entryDx=0;entryDy=0;" parent="1" source="WHbFI5c_Wu-xMdbz2nJR-31" target="WHbFI5c_Wu-xMdbz2nJR-39" edge="1">
          <mxGeometry width="50" height="50" relative="1" as="geometry">
            <mxPoint x="-985.43" y="-825" as="sourcePoint" />
            <mxPoint x="-985.43" y="-914" as="targetPoint" />
          </mxGeometry>
        </mxCell>
        <mxCell id="WHbFI5c_Wu-xMdbz2nJR-42" value="&lt;div&gt;locn:address&lt;/div&gt;" style="text;html=1;align=center;verticalAlign=middle;resizable=0;points=[];labelBackgroundColor=#ffffff;" parent="WHbFI5c_Wu-xMdbz2nJR-41" vertex="1" connectable="0">
          <mxGeometry x="-0.1269" relative="1" as="geometry">
            <mxPoint x="-1" as="offset" />
          </mxGeometry>
        </mxCell>
        <mxCell id="WHbFI5c_Wu-xMdbz2nJR-43" value="" style="endArrow=classic;html=1;exitX=1;exitY=0.5;exitDx=0;exitDy=0;endSize=8;arcSize=0;rounded=0;entryX=0;entryY=0.5;entryDx=0;entryDy=0;" parent="1" source="EqtquCx9TaFXY-XCjnWr-50" target="WHbFI5c_Wu-xMdbz2nJR-45" edge="1">
          <mxGeometry width="50" height="50" relative="1" as="geometry">
            <mxPoint x="-775.11" y="184.75" as="sourcePoint" />
            <mxPoint x="-775.11" y="303.75" as="targetPoint" />
          </mxGeometry>
        </mxCell>
        <mxCell id="WHbFI5c_Wu-xMdbz2nJR-44" value="&lt;div&gt;epo:hasEstimatedDuration&lt;/div&gt;" style="text;html=1;align=center;verticalAlign=middle;resizable=0;points=[];labelBackgroundColor=#ffffff;" parent="WHbFI5c_Wu-xMdbz2nJR-43" vertex="1" connectable="0">
          <mxGeometry x="-0.1269" relative="1" as="geometry">
            <mxPoint x="7" as="offset" />
          </mxGeometry>
        </mxCell>
        <mxCell id="WHbFI5c_Wu-xMdbz2nJR-45" value="&lt;font style=&quot;font-size: 14px;&quot;&gt;&lt;b&gt;epo:Duration (&lt;/b&gt;&lt;b style=&quot;border-color: var(--border-color);&quot;&gt;ProcurementProject_DurationMeasure&lt;/b&gt;&lt;b&gt;)&lt;/b&gt;&lt;/font&gt;" style="rounded=0;whiteSpace=wrap;html=1;snapToPoint=1;points=[[0.1,0],[0.2,0],[0.3,0],[0.4,0],[0.5,0],[0.6,0],[0.7,0],[0.8,0],[0.9,0],[0,0.1],[0,0.3],[0,0.5],[0,0.7],[0,0.9],[0.1,1],[0.2,1],[0.3,1],[0.4,1],[0.5,1],[0.6,1],[0.7,1],[0.8,1],[0.9,1],[1,0.1],[1,0.3],[1,0.5],[1,0.7],[1,0.9]];" parent="1" vertex="1">
          <mxGeometry x="-748.11" y="33" width="290" height="43.5" as="geometry" />
        </mxCell>
        <mxCell id="WHbFI5c_Wu-xMdbz2nJR-46" value="" style="endArrow=classic;html=1;exitX=0.5;exitY=0;exitDx=0;exitDy=0;endSize=8;arcSize=0;rounded=0;entryX=0.5;entryY=1;entryDx=0;entryDy=0;" parent="1" source="WHbFI5c_Wu-xMdbz2nJR-20" target="WHbFI5c_Wu-xMdbz2nJR-49" edge="1">
          <mxGeometry width="50" height="50" relative="1" as="geometry">
            <mxPoint x="-1338.4299999999998" y="-810" as="sourcePoint" />
            <mxPoint x="-1433.4299999999998" y="-712" as="targetPoint" />
          </mxGeometry>
        </mxCell>
        <mxCell id="WHbFI5c_Wu-xMdbz2nJR-47" value="epo:definesContractPeriod (0..1)" style="text;html=1;align=center;verticalAlign=middle;resizable=0;points=[];labelBackgroundColor=#ffffff;" parent="WHbFI5c_Wu-xMdbz2nJR-46" vertex="1" connectable="0">
          <mxGeometry x="-0.1269" relative="1" as="geometry">
            <mxPoint y="-1" as="offset" />
          </mxGeometry>
        </mxCell>
        <mxCell id="WHbFI5c_Wu-xMdbz2nJR-48" value="&lt;div style=&quot;text-align: start;&quot;&gt;&lt;span style=&quot;background-color: initial;&quot;&gt;&lt;b&gt;epo:Period&lt;/b&gt;&lt;/span&gt;&lt;/div&gt;" style="rounded=0;whiteSpace=wrap;html=1;snapToPoint=1;points=[[0.1,0],[0.2,0],[0.3,0],[0.4,0],[0.5,0],[0.6,0],[0.7,0],[0.8,0],[0.9,0],[0,0.1],[0,0.3],[0,0.5],[0,0.7],[0,0.9],[0.1,1],[0.2,1],[0.3,1],[0.4,1],[0.5,1],[0.6,1],[0.7,1],[0.8,1],[0.9,1],[1,0.1],[1,0.3],[1,0.5],[1,0.7],[1,0.9]];fontFamily=Helvetica;fontSize=14;fillColor=none;" parent="1" vertex="1">
          <mxGeometry x="-1554.4299999999998" y="-1004" width="240" height="30" as="geometry" />
        </mxCell>
        <mxCell id="WHbFI5c_Wu-xMdbz2nJR-49" value="epo:hasEnd : xsd:dateTime&lt;br&gt;&lt;font style=&quot;font-size: 14px;&quot;&gt;&lt;b style=&quot;&quot;&gt;&amp;nbsp;(&lt;/b&gt;&lt;b style=&quot;border-color: var(--border-color); background-color: rgb(255, 255, 255);&quot;&gt;ProcurementProject_EndDate&lt;/b&gt;&lt;b style=&quot;&quot;&gt;)&lt;/b&gt;&lt;/font&gt;&lt;u&gt;&lt;br&gt;&lt;/u&gt;" style="rounded=0;whiteSpace=wrap;html=1;snapToPoint=1;points=[[0.1,0],[0.2,0],[0.3,0],[0.4,0],[0.5,0],[0.6,0],[0.7,0],[0.8,0],[0.9,0],[0,0.1],[0,0.3],[0,0.5],[0,0.7],[0,0.9],[0.1,1],[0.2,1],[0.3,1],[0.4,1],[0.5,1],[0.6,1],[0.7,1],[0.8,1],[0.9,1],[1,0.1],[1,0.3],[1,0.5],[1,0.7],[1,0.9]];fontFamily=Helvetica;fontSize=14;fillColor=none;" parent="1" vertex="1">
          <mxGeometry x="-1554.4299999999998" y="-974" width="240" height="60" as="geometry" />
        </mxCell>
        <mxCell id="WHbFI5c_Wu-xMdbz2nJR-50" value="" style="endArrow=block;html=1;fontColor=#000099;exitX=0.5;exitY=0;exitDx=0;exitDy=0;endFill=0;endSize=8;arcSize=0;rounded=0;entryX=0.8;entryY=1;entryDx=0;entryDy=0;" parent="1" source="UUAXTXCXdKJbw71_6arQ-7" target="UUAXTXCXdKJbw71_6arQ-68" edge="1">
          <mxGeometry width="50" height="50" relative="1" as="geometry">
            <mxPoint x="-1776.4299999999998" y="-214" as="sourcePoint" />
            <mxPoint x="-1648.1799999999998" y="-445.5" as="targetPoint" />
            <Array as="points" />
          </mxGeometry>
        </mxCell>
        <mxCell id="hxGnDRO2k2o7Q61DhqwJ-1" value="" style="endArrow=classic;html=1;entryX=0.5;entryY=0;entryDx=0;entryDy=0;endSize=8;arcSize=0;rounded=0;exitX=0;exitY=0.5;exitDx=0;exitDy=0;" parent="1" source="UUAXTXCXdKJbw71_6arQ-5" target="hxGnDRO2k2o7Q61DhqwJ-3" edge="1">
          <mxGeometry width="50" height="50" relative="1" as="geometry">
            <mxPoint x="-2197.43" y="-568.5" as="sourcePoint" />
            <mxPoint x="-2236.43" y="-506.8599999999999" as="targetPoint" />
            <Array as="points">
              <mxPoint x="-2209.43" y="-354" />
            </Array>
          </mxGeometry>
        </mxCell>
        <mxCell id="hxGnDRO2k2o7Q61DhqwJ-2" value="&lt;div&gt;epo:hasProcedureType&lt;/div&gt;&lt;div&gt;&lt;b&gt;(TenderingProcess_ProcedureCode)&lt;/b&gt;&lt;/div&gt;" style="text;html=1;align=center;verticalAlign=middle;resizable=0;points=[];labelBackgroundColor=#ffffff;" parent="hxGnDRO2k2o7Q61DhqwJ-1" vertex="1" connectable="0">
          <mxGeometry x="-0.1269" relative="1" as="geometry">
            <mxPoint x="11" y="-2" as="offset" />
          </mxGeometry>
        </mxCell>
        <mxCell id="hxGnDRO2k2o7Q61DhqwJ-3" value="&lt;div style=&quot;text-align: start;&quot;&gt;&lt;span style=&quot;background-color: initial;&quot;&gt;at-voc:procurement-procedure-type&lt;/span&gt;&lt;/div&gt;" style="rounded=0;whiteSpace=wrap;html=1;snapToPoint=1;points=[[0.1,0],[0.2,0],[0.3,0],[0.4,0],[0.5,0],[0.6,0],[0.7,0],[0.8,0],[0.9,0],[0,0.1],[0,0.3],[0,0.5],[0,0.7],[0,0.9],[0.1,1],[0.2,1],[0.3,1],[0.4,1],[0.5,1],[0.6,1],[0.7,1],[0.8,1],[0.9,1],[1,0.1],[1,0.3],[1,0.5],[1,0.7],[1,0.9]];fontFamily=Helvetica;fontSize=14;fillColor=none;" parent="1" vertex="1">
          <mxGeometry x="-2324.43" y="-292" width="229.86" height="43" as="geometry" />
        </mxCell>
        <mxCell id="hxGnDRO2k2o7Q61DhqwJ-4" value="&lt;div style=&quot;text-align: start;&quot;&gt;&lt;span style=&quot;background-color: initial;&quot;&gt;&lt;b&gt;epo:ProcedureSpecificTerm&lt;/b&gt;&lt;/span&gt;&lt;/div&gt;" style="rounded=0;whiteSpace=wrap;html=1;snapToPoint=1;points=[[0.1,0],[0.2,0],[0.3,0],[0.4,0],[0.5,0],[0.6,0],[0.7,0],[0.8,0],[0.9,0],[0,0.1],[0,0.3],[0,0.5],[0,0.7],[0,0.9],[0.1,1],[0.2,1],[0.3,1],[0.4,1],[0.5,1],[0.6,1],[0.7,1],[0.8,1],[0.9,1],[1,0.1],[1,0.3],[1,0.5],[1,0.7],[1,0.9]];fontFamily=Helvetica;fontSize=14;fillColor=none;" parent="1" vertex="1">
          <mxGeometry x="-1993.4299999999998" y="-249" width="226" height="30" as="geometry" />
        </mxCell>
        <mxCell id="hxGnDRO2k2o7Q61DhqwJ-6" value="" style="endArrow=classic;html=1;exitX=0.5;exitY=1;exitDx=0;exitDy=0;endSize=8;arcSize=0;rounded=0;entryX=0.5;entryY=0;entryDx=0;entryDy=0;" parent="1" source="UUAXTXCXdKJbw71_6arQ-5" target="hxGnDRO2k2o7Q61DhqwJ-4" edge="1">
          <mxGeometry width="50" height="50" relative="1" as="geometry">
            <mxPoint x="-1724.4299999999998" y="-335" as="sourcePoint" />
            <mxPoint x="-1974.4299999999998" y="-242" as="targetPoint" />
            <Array as="points" />
          </mxGeometry>
        </mxCell>
        <mxCell id="hxGnDRO2k2o7Q61DhqwJ-7" value="&lt;div&gt;epo:isSubjectToProcedureSpecificTerm (1..N)&lt;/div&gt;" style="text;html=1;align=center;verticalAlign=middle;resizable=0;points=[];labelBackgroundColor=#ffffff;" parent="hxGnDRO2k2o7Q61DhqwJ-6" vertex="1" connectable="0">
          <mxGeometry x="-0.1269" relative="1" as="geometry">
            <mxPoint as="offset" />
          </mxGeometry>
        </mxCell>
        <mxCell id="hxGnDRO2k2o7Q61DhqwJ-8" value="&lt;div style=&quot;text-align: start;&quot;&gt;&lt;span style=&quot;background-color: initial;&quot;&gt;&lt;b&gt;epo:SubmissionTerm&lt;/b&gt;&lt;/span&gt;&lt;/div&gt;" style="rounded=0;whiteSpace=wrap;html=1;snapToPoint=1;points=[[0.1,0],[0.2,0],[0.3,0],[0.4,0],[0.5,0],[0.6,0],[0.7,0],[0.8,0],[0.9,0],[0,0.1],[0,0.3],[0,0.5],[0,0.7],[0,0.9],[0.1,1],[0.2,1],[0.3,1],[0.4,1],[0.5,1],[0.6,1],[0.7,1],[0.8,1],[0.9,1],[1,0.1],[1,0.3],[1,0.5],[1,0.7],[1,0.9]];fontFamily=Helvetica;fontSize=14;fillColor=none;" parent="1" vertex="1">
          <mxGeometry x="-2324.43" y="-177" width="399" height="30" as="geometry" />
        </mxCell>
        <mxCell id="hxGnDRO2k2o7Q61DhqwJ-9" value="epo:hasReceiptDeadline : xsd:dateTime&lt;br&gt;&lt;b&gt;(TenderingProcess_TenderSubmissionDeadlinePeriod)&lt;br&gt;&lt;/b&gt;epo:hasReceiptExpressionDeadline : xsd:dateTime&lt;br style=&quot;border-color: var(--border-color);&quot;&gt;&lt;b style=&quot;border-color: var(--border-color);&quot;&gt;(TenderingProcess_ParticipationRequestReceptionPeriod)&lt;/b&gt;&lt;b&gt;&lt;br&gt;&lt;/b&gt;" style="rounded=0;whiteSpace=wrap;html=1;snapToPoint=1;points=[[0.1,0],[0.2,0],[0.3,0],[0.4,0],[0.5,0],[0.6,0],[0.7,0],[0.8,0],[0.9,0],[0,0.1],[0,0.3],[0,0.5],[0,0.7],[0,0.9],[0.1,1],[0.2,1],[0.3,1],[0.4,1],[0.5,1],[0.6,1],[0.7,1],[0.8,1],[0.9,1],[1,0.1],[1,0.3],[1,0.5],[1,0.7],[1,0.9]];fontFamily=Helvetica;fontSize=14;fillColor=none;" parent="1" vertex="1">
          <mxGeometry x="-2324.43" y="-147" width="399" height="80" as="geometry" />
        </mxCell>
        <mxCell id="hxGnDRO2k2o7Q61DhqwJ-10" value="" style="endArrow=block;html=1;fontColor=#000099;exitX=1;exitY=0.5;exitDx=0;exitDy=0;endFill=0;endSize=8;arcSize=0;rounded=0;entryX=0.5;entryY=1;entryDx=0;entryDy=0;" parent="1" source="hxGnDRO2k2o7Q61DhqwJ-8" target="hxGnDRO2k2o7Q61DhqwJ-4" edge="1">
          <mxGeometry width="50" height="50" relative="1" as="geometry">
            <mxPoint x="-1902.9299999999998" y="-106" as="sourcePoint" />
            <mxPoint x="-1902.9299999999998" y="-167" as="targetPoint" />
            <Array as="points">
              <mxPoint x="-1880.4299999999998" y="-162" />
            </Array>
          </mxGeometry>
        </mxCell>
        <mxCell id="hxGnDRO2k2o7Q61DhqwJ-13" value="&lt;div style=&quot;text-align: start;&quot;&gt;&lt;span style=&quot;background-color: initial;&quot;&gt;&lt;b&gt;epo:Notice&lt;/b&gt;&lt;/span&gt;&lt;/div&gt;" style="rounded=0;whiteSpace=wrap;html=1;snapToPoint=1;points=[[0.1,0],[0.2,0],[0.3,0],[0.4,0],[0.5,0],[0.6,0],[0.7,0],[0.8,0],[0.9,0],[0,0.1],[0,0.3],[0,0.5],[0,0.7],[0,0.9],[0.1,1],[0.2,1],[0.3,1],[0.4,1],[0.5,1],[0.6,1],[0.7,1],[0.8,1],[0.9,1],[1,0.1],[1,0.3],[1,0.5],[1,0.7],[1,0.9]];fontFamily=Helvetica;fontSize=14;fillColor=none;" parent="1" vertex="1">
          <mxGeometry x="-1435.4299999999998" y="-381" width="180" height="54" as="geometry" />
        </mxCell>
        <mxCell id="hxGnDRO2k2o7Q61DhqwJ-17" value="" style="endArrow=classic;html=1;endSize=8;arcSize=0;rounded=0;entryX=1;entryY=0.5;entryDx=0;entryDy=0;exitX=0;exitY=0.5;exitDx=0;exitDy=0;" parent="1" source="hxGnDRO2k2o7Q61DhqwJ-13" target="UUAXTXCXdKJbw71_6arQ-5" edge="1">
          <mxGeometry width="50" height="50" relative="1" as="geometry">
            <mxPoint x="-1638.4299999999998" y="-436" as="sourcePoint" />
            <mxPoint x="-1524.4299999999998" y="-436" as="targetPoint" />
            <Array as="points" />
          </mxGeometry>
        </mxCell>
        <mxCell id="hxGnDRO2k2o7Q61DhqwJ-18" value="&lt;div&gt;epo:refersToProcedure&lt;/div&gt;" style="text;html=1;align=center;verticalAlign=middle;resizable=0;points=[];labelBackgroundColor=#ffffff;" parent="hxGnDRO2k2o7Q61DhqwJ-17" vertex="1" connectable="0">
          <mxGeometry x="-0.1269" relative="1" as="geometry">
            <mxPoint x="-12" as="offset" />
          </mxGeometry>
        </mxCell>
        <mxCell id="hxGnDRO2k2o7Q61DhqwJ-19" value="&lt;div style=&quot;text-align: start;&quot;&gt;&lt;span style=&quot;background-color: initial;&quot;&gt;&lt;b&gt;epo:PublicationProvision&lt;/b&gt;&lt;/span&gt;&lt;/div&gt;" style="rounded=0;whiteSpace=wrap;html=1;snapToPoint=1;points=[[0.1,0],[0.2,0],[0.3,0],[0.4,0],[0.5,0],[0.6,0],[0.7,0],[0.8,0],[0.9,0],[0,0.1],[0,0.3],[0,0.5],[0,0.7],[0,0.9],[0.1,1],[0.2,1],[0.3,1],[0.4,1],[0.5,1],[0.6,1],[0.7,1],[0.8,1],[0.9,1],[1,0.1],[1,0.3],[1,0.5],[1,0.7],[1,0.9]];fontFamily=Helvetica;fontSize=14;fillColor=none;" parent="1" vertex="1">
          <mxGeometry x="-1063.4299999999998" y="-523" width="290" height="30" as="geometry" />
        </mxCell>
        <mxCell id="hxGnDRO2k2o7Q61DhqwJ-20" value="epo:hasPreferredPublicationDate : xsd:Date&lt;b style=&quot;&quot;&gt;&lt;br&gt;&lt;/b&gt;&lt;b style=&quot;border-color: var(--border-color);&quot;&gt;(ValidNoticeInfo_IssueDate)&lt;/b&gt;&lt;u&gt;&lt;br&gt;&lt;/u&gt;" style="rounded=0;whiteSpace=wrap;html=1;snapToPoint=1;points=[[0.1,0],[0.2,0],[0.3,0],[0.4,0],[0.5,0],[0.6,0],[0.7,0],[0.8,0],[0.9,0],[0,0.1],[0,0.3],[0,0.5],[0,0.7],[0,0.9],[0.1,1],[0.2,1],[0.3,1],[0.4,1],[0.5,1],[0.6,1],[0.7,1],[0.8,1],[0.9,1],[1,0.1],[1,0.3],[1,0.5],[1,0.7],[1,0.9]];fontFamily=Helvetica;fontSize=14;fillColor=none;" parent="1" vertex="1">
          <mxGeometry x="-1063.4299999999998" y="-493" width="290" height="49" as="geometry" />
        </mxCell>
        <mxCell id="hxGnDRO2k2o7Q61DhqwJ-21" value="&lt;div style=&quot;text-align: start;&quot;&gt;&lt;span style=&quot;background-color: initial;&quot;&gt;&lt;b&gt;epo:NoticeDescription&lt;/b&gt;&lt;/span&gt;&lt;/div&gt;" style="rounded=0;whiteSpace=wrap;html=1;snapToPoint=1;points=[[0.1,0],[0.2,0],[0.3,0],[0.4,0],[0.5,0],[0.6,0],[0.7,0],[0.8,0],[0.9,0],[0,0.1],[0,0.3],[0,0.5],[0,0.7],[0,0.9],[0.1,1],[0.2,1],[0.3,1],[0.4,1],[0.5,1],[0.6,1],[0.7,1],[0.8,1],[0.9,1],[1,0.1],[1,0.3],[1,0.5],[1,0.7],[1,0.9]];fontFamily=Helvetica;fontSize=14;fillColor=none;" parent="1" vertex="1">
          <mxGeometry x="-1093.4299999999998" y="-369" width="350" height="30" as="geometry" />
        </mxCell>
        <mxCell id="hxGnDRO2k2o7Q61DhqwJ-22" value="nextproc:validNoticeInfoNoticeTypeCode : string&lt;br style=&quot;border-color: var(--border-color);&quot;&gt;nextproc:validNoticeInfoPublicationMediaName : string&lt;u&gt;&lt;br&gt;&lt;/u&gt;" style="rounded=0;whiteSpace=wrap;html=1;snapToPoint=1;points=[[0.1,0],[0.2,0],[0.3,0],[0.4,0],[0.5,0],[0.6,0],[0.7,0],[0.8,0],[0.9,0],[0,0.1],[0,0.3],[0,0.5],[0,0.7],[0,0.9],[0.1,1],[0.2,1],[0.3,1],[0.4,1],[0.5,1],[0.6,1],[0.7,1],[0.8,1],[0.9,1],[1,0.1],[1,0.3],[1,0.5],[1,0.7],[1,0.9]];fontFamily=Helvetica;fontSize=14;fillColor=none;" parent="1" vertex="1">
          <mxGeometry x="-1093.4299999999998" y="-339" width="350" height="59" as="geometry" />
        </mxCell>
        <mxCell id="hxGnDRO2k2o7Q61DhqwJ-23" value="" style="endArrow=block;html=1;fontColor=#000099;endFill=0;endSize=8;arcSize=0;rounded=0;entryX=0.5;entryY=0;entryDx=0;entryDy=0;exitX=0.5;exitY=1;exitDx=0;exitDy=0;" parent="1" source="hxGnDRO2k2o7Q61DhqwJ-20" target="hxGnDRO2k2o7Q61DhqwJ-21" edge="1">
          <mxGeometry width="50" height="50" relative="1" as="geometry">
            <mxPoint x="-618.43" y="-141" as="sourcePoint" />
            <mxPoint x="-618.43" y="-270" as="targetPoint" />
            <Array as="points" />
          </mxGeometry>
        </mxCell>
        <mxCell id="hxGnDRO2k2o7Q61DhqwJ-24" value="" style="endArrow=classic;html=1;endSize=8;arcSize=0;rounded=0;entryX=1;entryY=0.5;entryDx=0;entryDy=0;exitX=0;exitY=0.5;exitDx=0;exitDy=0;" parent="1" source="hxGnDRO2k2o7Q61DhqwJ-21" target="hxGnDRO2k2o7Q61DhqwJ-13" edge="1">
          <mxGeometry width="50" height="50" relative="1" as="geometry">
            <mxPoint x="-1846.4299999999998" y="-364" as="sourcePoint" />
            <mxPoint x="-1732.4299999999998" y="-364" as="targetPoint" />
          </mxGeometry>
        </mxCell>
        <mxCell id="hxGnDRO2k2o7Q61DhqwJ-25" value="&lt;div&gt;epo:describesNotice&lt;/div&gt;" style="text;html=1;align=center;verticalAlign=middle;resizable=0;points=[];labelBackgroundColor=#ffffff;" parent="hxGnDRO2k2o7Q61DhqwJ-24" vertex="1" connectable="0">
          <mxGeometry x="-0.1269" relative="1" as="geometry">
            <mxPoint x="-7" as="offset" />
          </mxGeometry>
        </mxCell>
        <mxCell id="hxGnDRO2k2o7Q61DhqwJ-28" value="" style="endArrow=classic;html=1;endSize=8;arcSize=0;rounded=0;entryX=0.086;entryY=1.003;entryDx=0;entryDy=0;exitX=0.919;exitY=0.998;exitDx=0;exitDy=0;exitPerimeter=0;entryPerimeter=0;" parent="1" source="hxGnDRO2k2o7Q61DhqwJ-13" target="hxGnDRO2k2o7Q61DhqwJ-13" edge="1">
          <mxGeometry width="50" height="50" relative="1" as="geometry">
            <mxPoint x="-1294.4299999999998" y="-320" as="sourcePoint" />
            <mxPoint x="-1354.9299999999998" y="-179" as="targetPoint" />
            <Array as="points">
              <mxPoint x="-1270" y="-300" />
              <mxPoint x="-1420" y="-300" />
            </Array>
          </mxGeometry>
        </mxCell>
        <mxCell id="hxGnDRO2k2o7Q61DhqwJ-29" value="&lt;div&gt;epo:refersToNotice (0..1)&lt;/div&gt;" style="text;html=1;align=center;verticalAlign=middle;resizable=0;points=[];labelBackgroundColor=#ffffff;" parent="hxGnDRO2k2o7Q61DhqwJ-28" vertex="1" connectable="0">
          <mxGeometry x="-0.1269" relative="1" as="geometry">
            <mxPoint x="-13" y="-1" as="offset" />
          </mxGeometry>
        </mxCell>
        <mxCell id="f5XXGPpHDuEVfZ7KGFvx-1" value="&lt;div style=&quot;text-align: start;&quot;&gt;&lt;span style=&quot;background-color: initial;&quot;&gt;&lt;b&gt;epo:Winner&lt;/b&gt;&lt;/span&gt;&lt;/div&gt;" style="rounded=0;whiteSpace=wrap;html=1;snapToPoint=1;points=[[0.1,0],[0.2,0],[0.3,0],[0.4,0],[0.5,0],[0.6,0],[0.7,0],[0.8,0],[0.9,0],[0,0.1],[0,0.3],[0,0.5],[0,0.7],[0,0.9],[0.1,1],[0.2,1],[0.3,1],[0.4,1],[0.5,1],[0.6,1],[0.7,1],[0.8,1],[0.9,1],[1,0.1],[1,0.3],[1,0.5],[1,0.7],[1,0.9]];fontFamily=Helvetica;fontSize=14;fillColor=none;" parent="1" vertex="1">
          <mxGeometry x="-2156.93" y="309" width="320" height="30" as="geometry" />
        </mxCell>
        <mxCell id="f5XXGPpHDuEVfZ7KGFvx-2" value="&lt;div style=&quot;border-color: var(--border-color); font-weight: 700;&quot;&gt;&lt;span style=&quot;border-color: var(--border-color);&quot;&gt;&lt;/span&gt;&lt;/div&gt;&lt;div&gt;&lt;span style=&quot;background-color: initial;&quot;&gt;nextproc:TenderResultCode : string&lt;/span&gt;&lt;/div&gt;&lt;div&gt;nextproc:TenderResultWinningPartyID : string&lt;span style=&quot;background-color: initial;&quot;&gt;&lt;br&gt;&lt;/span&gt;&lt;/div&gt;&lt;div&gt;nextproc:TenderResultWinningPartyName : string&lt;br&gt;&lt;/div&gt;" style="rounded=0;whiteSpace=wrap;html=1;snapToPoint=1;points=[[0.1,0],[0.2,0],[0.3,0],[0.4,0],[0.5,0],[0.6,0],[0.7,0],[0.8,0],[0.9,0],[0,0.1],[0,0.3],[0,0.5],[0,0.7],[0,0.9],[0.1,1],[0.2,1],[0.3,1],[0.4,1],[0.5,1],[0.6,1],[0.7,1],[0.8,1],[0.9,1],[1,0.1],[1,0.3],[1,0.5],[1,0.7],[1,0.9]];fontFamily=Helvetica;fontSize=14;fillColor=none;" parent="1" vertex="1">
          <mxGeometry x="-2156.93" y="339" width="320" height="60" as="geometry" />
        </mxCell>
        <mxCell id="f5XXGPpHDuEVfZ7KGFvx-3" value="" style="endArrow=classic;html=1;endSize=8;arcSize=0;rounded=0;entryX=0.5;entryY=0;entryDx=0;entryDy=0;exitX=0.5;exitY=1;exitDx=0;exitDy=0;" parent="1" source="UUAXTXCXdKJbw71_6arQ-35" target="f5XXGPpHDuEVfZ7KGFvx-1" edge="1">
          <mxGeometry width="50" height="50" relative="1" as="geometry">
            <mxPoint x="-1996.9299999999996" y="227" as="sourcePoint" />
            <mxPoint x="-2453.43" y="227" as="targetPoint" />
            <Array as="points" />
          </mxGeometry>
        </mxCell>
        <mxCell id="f5XXGPpHDuEVfZ7KGFvx-4" value="&lt;div&gt;epo:indicatesAwardOfLotToWinner (0..1)&lt;/div&gt;" style="text;html=1;align=center;verticalAlign=middle;resizable=0;points=[];labelBackgroundColor=#ffffff;" parent="f5XXGPpHDuEVfZ7KGFvx-3" vertex="1" connectable="0">
          <mxGeometry x="-0.1269" relative="1" as="geometry">
            <mxPoint y="-1" as="offset" />
          </mxGeometry>
        </mxCell>
        <mxCell id="f5XXGPpHDuEVfZ7KGFvx-6" value="&lt;div style=&quot;text-align: start;&quot;&gt;&lt;span style=&quot;background-color: initial;&quot;&gt;&lt;b&gt;epo:SubmissionStatisticalInformation&lt;/b&gt;&lt;/span&gt;&lt;/div&gt;" style="rounded=0;whiteSpace=wrap;html=1;snapToPoint=1;points=[[0.1,0],[0.2,0],[0.3,0],[0.4,0],[0.5,0],[0.6,0],[0.7,0],[0.8,0],[0.9,0],[0,0.1],[0,0.3],[0,0.5],[0,0.7],[0,0.9],[0.1,1],[0.2,1],[0.3,1],[0.4,1],[0.5,1],[0.6,1],[0.7,1],[0.8,1],[0.9,1],[1,0.1],[1,0.3],[1,0.5],[1,0.7],[1,0.9]];fontFamily=Helvetica;fontSize=14;fillColor=none;" parent="1" vertex="1">
          <mxGeometry x="-2470" y="82.75" width="290" height="30" as="geometry" />
        </mxCell>
        <mxCell id="f5XXGPpHDuEVfZ7KGFvx-7" value="epo:hasReceivedTenders : xsd:integer&lt;b style=&quot;&quot;&gt;&lt;br&gt;&lt;/b&gt;&lt;b style=&quot;border-color: var(--border-color);&quot;&gt;(TenderResult_ ReceivedTenderQuantity)&lt;/b&gt;&lt;u&gt;&lt;br&gt;&lt;/u&gt;" style="rounded=0;whiteSpace=wrap;html=1;snapToPoint=1;points=[[0.1,0],[0.2,0],[0.3,0],[0.4,0],[0.5,0],[0.6,0],[0.7,0],[0.8,0],[0.9,0],[0,0.1],[0,0.3],[0,0.5],[0,0.7],[0,0.9],[0.1,1],[0.2,1],[0.3,1],[0.4,1],[0.5,1],[0.6,1],[0.7,1],[0.8,1],[0.9,1],[1,0.1],[1,0.3],[1,0.5],[1,0.7],[1,0.9]];fontFamily=Helvetica;fontSize=14;fillColor=none;" parent="1" vertex="1">
          <mxGeometry x="-2470" y="112.75" width="290" height="49" as="geometry" />
        </mxCell>
        <mxCell id="f5XXGPpHDuEVfZ7KGFvx-8" value="" style="endArrow=classic;html=1;endSize=8;arcSize=0;rounded=0;entryX=0;entryY=0.5;entryDx=0;entryDy=0;exitX=0.5;exitY=0;exitDx=0;exitDy=0;" parent="1" source="f5XXGPpHDuEVfZ7KGFvx-6" target="UUAXTXCXdKJbw71_6arQ-33" edge="1">
          <mxGeometry width="50" height="50" relative="1" as="geometry">
            <mxPoint x="-762.69" y="-924.25" as="sourcePoint" />
            <mxPoint x="-762.69" y="-863.25" as="targetPoint" />
            <Array as="points">
              <mxPoint x="-2325" y="1" />
            </Array>
          </mxGeometry>
        </mxCell>
        <mxCell id="f5XXGPpHDuEVfZ7KGFvx-9" value="&lt;div&gt;epo:summarisesInformationForLotAwardOutcome&lt;/div&gt;" style="text;html=1;align=center;verticalAlign=middle;resizable=0;points=[];labelBackgroundColor=#ffffff;" parent="f5XXGPpHDuEVfZ7KGFvx-8" vertex="1" connectable="0">
          <mxGeometry x="-0.1269" relative="1" as="geometry">
            <mxPoint x="-40" y="39" as="offset" />
          </mxGeometry>
        </mxCell>
        <mxCell id="f5XXGPpHDuEVfZ7KGFvx-13" value="" style="endArrow=classic;html=1;entryX=0;entryY=0.5;entryDx=0;entryDy=0;endSize=8;arcSize=0;rounded=0;exitX=1;exitY=0.5;exitDx=0;exitDy=0;" parent="1" source="UUAXTXCXdKJbw71_6arQ-24" target="WHbFI5c_Wu-xMdbz2nJR-2" edge="1">
          <mxGeometry width="50" height="50" relative="1" as="geometry">
            <mxPoint x="-1384.4299999999998" y="1100" as="sourcePoint" />
            <mxPoint x="-1153.4299999999998" y="1100" as="targetPoint" />
            <Array as="points" />
          </mxGeometry>
        </mxCell>
        <mxCell id="f5XXGPpHDuEVfZ7KGFvx-14" value="&lt;div&gt;epo:hasTotalValue&lt;/div&gt;" style="text;html=1;align=center;verticalAlign=middle;resizable=0;points=[];labelBackgroundColor=#ffffff;" parent="f5XXGPpHDuEVfZ7KGFvx-13" vertex="1" connectable="0">
          <mxGeometry x="-0.1269" relative="1" as="geometry">
            <mxPoint x="6" y="-1" as="offset" />
          </mxGeometry>
        </mxCell>
        <mxCell id="LOdiJAVKNou4yUpcRDQU-1" value="&lt;div style=&quot;text-align: start;&quot;&gt;&lt;span style=&quot;background-color: initial;&quot;&gt;&lt;b&gt;epo:ProcurementElement&lt;/b&gt;&lt;/span&gt;&lt;/div&gt;" style="rounded=0;whiteSpace=wrap;html=1;snapToPoint=1;points=[[0.1,0],[0.2,0],[0.3,0],[0.4,0],[0.5,0],[0.6,0],[0.7,0],[0.8,0],[0.9,0],[0,0.1],[0,0.3],[0,0.5],[0,0.7],[0,0.9],[0.1,1],[0.2,1],[0.3,1],[0.4,1],[0.5,1],[0.6,1],[0.7,1],[0.8,1],[0.9,1],[1,0.1],[1,0.3],[1,0.5],[1,0.7],[1,0.9]];fontFamily=Helvetica;fontSize=14;fillColor=none;" vertex="1" parent="1">
          <mxGeometry x="-1995.4299999999998" y="-914" width="276.5" height="30" as="geometry" />
        </mxCell>
        <mxCell id="LOdiJAVKNou4yUpcRDQU-2" value="epo:hasTitle : rdfs:Literal&lt;br&gt;&lt;b&gt;(title?) (summary?)&lt;br&gt;(ProcurementProject_Name)&lt;br&gt;&lt;/b&gt;&lt;b style=&quot;border-color: var(--border-color);&quot;&gt;(ProcurementProjectLot_Name)&lt;br&gt;&lt;/b&gt;&lt;br&gt;epo:hasDescription : rdfs:Literal&lt;br&gt;&lt;b style=&quot;border-color: var(--border-color);&quot;&gt;(title?) &lt;br&gt;&lt;b style=&quot;border-color: var(--border-color);&quot;&gt;(ContractFolderStatusCode)&lt;/b&gt;&lt;br&gt;&lt;b style=&quot;border-color: var(--border-color);&quot;&gt;(ProcurementProject_TypeCode)&lt;/b&gt;&lt;br&gt;&lt;/b&gt;&lt;span style=&quot;border-color: var(--border-color);&quot;&gt;&lt;b&gt;(ProcurementProject_Sub&lt;/b&gt;&lt;b style=&quot;font-weight: bold; border-color: var(--border-color);&quot;&gt;&lt;b style=&quot;border-color: var(--border-color);&quot;&gt;TypeCode&lt;/b&gt;&lt;/b&gt;&lt;b&gt;)&lt;/b&gt;&lt;br&gt;&lt;/span&gt;" style="rounded=0;whiteSpace=wrap;html=1;snapToPoint=1;points=[[0.1,0],[0.2,0],[0.3,0],[0.4,0],[0.5,0],[0.6,0],[0.7,0],[0.8,0],[0.9,0],[0,0.1],[0,0.3],[0,0.5],[0,0.7],[0,0.9],[0.1,1],[0.2,1],[0.3,1],[0.4,1],[0.5,1],[0.6,1],[0.7,1],[0.8,1],[0.9,1],[1,0.1],[1,0.3],[1,0.5],[1,0.7],[1,0.9]];fontFamily=Helvetica;fontSize=14;fillColor=none;" vertex="1" parent="1">
          <mxGeometry x="-1995.4299999999998" y="-884" width="276.5" height="180" as="geometry" />
        </mxCell>
        <mxCell id="LOdiJAVKNou4yUpcRDQU-3" value="" style="endArrow=block;html=1;fontColor=#000099;exitX=0.2;exitY=0;exitDx=0;exitDy=0;endFill=0;endSize=8;arcSize=0;rounded=0;entryX=0.5;entryY=1;entryDx=0;entryDy=0;" edge="1" parent="1" source="UUAXTXCXdKJbw71_6arQ-68" target="LOdiJAVKNou4yUpcRDQU-2">
          <mxGeometry width="50" height="50" relative="1" as="geometry">
            <mxPoint x="-1776.4299999999998" y="-177" as="sourcePoint" />
            <mxPoint x="-1776.4299999999998" y="-411" as="targetPoint" />
          </mxGeometry>
        </mxCell>
        <mxCell id="LOdiJAVKNou4yUpcRDQU-9" value="" style="endArrow=classic;html=1;exitX=0.5;exitY=0;exitDx=0;exitDy=0;entryX=0.1;entryY=1;entryDx=0;entryDy=0;endSize=8;arcSize=0;rounded=0;" edge="1" parent="1" source="UUAXTXCXdKJbw71_6arQ-22" target="UUAXTXCXdKJbw71_6arQ-71">
          <mxGeometry width="50" height="50" relative="1" as="geometry">
            <mxPoint x="-1411.4299999999998" y="-98" as="sourcePoint" />
            <mxPoint x="-1504.4299999999998" y="-249" as="targetPoint" />
          </mxGeometry>
        </mxCell>
        <mxCell id="LOdiJAVKNou4yUpcRDQU-10" value="&lt;div&gt;epo:hasID&lt;/div&gt;" style="text;html=1;align=center;verticalAlign=middle;resizable=0;points=[];labelBackgroundColor=#ffffff;" vertex="1" connectable="0" parent="LOdiJAVKNou4yUpcRDQU-9">
          <mxGeometry x="-0.1269" relative="1" as="geometry">
            <mxPoint y="139" as="offset" />
          </mxGeometry>
        </mxCell>
      </root>
    </mxGraphModel>
  </diagram>
</mxfile>
